<?xml version="1.0" encoding="UTF-8" standalone="no"?>
<svg
   xmlns:dc="http://purl.org/dc/elements/1.1/"
   xmlns:cc="http://creativecommons.org/ns#"
   xmlns:rdf="http://www.w3.org/1999/02/22-rdf-syntax-ns#"
   xmlns:svg="http://www.w3.org/2000/svg"
   xmlns="http://www.w3.org/2000/svg"
   xmlns:sodipodi="http://sodipodi.sourceforge.net/DTD/sodipodi-0.dtd"
   xmlns:inkscape="http://www.inkscape.org/namespaces/inkscape"
   version="1.1"
   viewBox="0.0 0.0 448.0472440944882 485.3622047244094"
   fill="none"
   stroke="none"
   stroke-linecap="square"
   stroke-miterlimit="10"
   id="svg298"
   sodipodi:docname="Async Dag Processing1.svg"
   inkscape:version="0.92.3 (2405546, 2018-03-11)">
  <metadata
     id="metadata304">
    <rdf:RDF>
      <cc:Work
         rdf:about="">
        <dc:format>image/svg+xml</dc:format>
        <dc:type
           rdf:resource="http://purl.org/dc/dcmitype/StillImage" />
      </cc:Work>
    </rdf:RDF>
  </metadata>
  <defs
     id="defs302" />
  <sodipodi:namedview
     pagecolor="#ffffff"
     bordercolor="#666666"
     borderopacity="1"
     objecttolerance="10"
     gridtolerance="10"
     guidetolerance="10"
     inkscape:pageopacity="0"
     inkscape:pageshadow="2"
     inkscape:window-width="1920"
     inkscape:window-height="1022"
     id="namedview300"
     showgrid="false"
     inkscape:zoom="1.4142136"
     inkscape:cx="141.05884"
     inkscape:cy="232.87866"
     inkscape:window-x="0"
     inkscape:window-y="28"
     inkscape:window-maximized="1"
     inkscape:current-layer="g296" />
  <clipPath
     id="p.0">
    <path
       d="m0 0l448.04724 0l0 485.3622l-448.04724 0l0 -485.3622z"
       clip-rule="nonzero"
       id="path185" />
  </clipPath>
  <g
     clip-path="url(#p.0)"
     id="g296">
    <path
       d="m0 0l448.04724 0l0 485.3622l-448.04724 0z"
       id="path188"
       fill-rule="evenodd"
       fill-opacity="0.0"
       fill="#000000" />
    <path
       d="m168.2126 70.63517l0 0c0 -12.776478 10.357376 -23.133858 23.13385 -23.133858l0 0c6.135483 0 12.019669 2.4373093 16.358109 6.775749c4.33844 4.33844 6.775757 10.222626 6.775757 16.358109l0 0c0 12.776474 -10.357376 23.133858 -23.133865 23.133858l0 0c-12.776474 0 -23.13385 -10.357384 -23.13385 -23.133858z"
       id="path190"
       fill-rule="evenodd"
       fill="#ffffff" />
    <path
       d="m168.2126 70.63517l0 0c0 -12.776478 10.357376 -23.133858 23.13385 -23.133858l0 0c6.135483 0 12.019669 2.4373093 16.358109 6.775749c4.33844 4.33844 6.775757 10.222626 6.775757 16.358109l0 0c0 12.776474 -10.357376 23.133858 -23.133865 23.133858l0 0c-12.776474 0 -23.13385 -10.357384 -23.13385 -23.133858z"
       id="path192"
       stroke-linejoin="round"
       stroke-linecap="butt"
       stroke-width="1.0"
       stroke="#000000"
       fill-rule="evenodd" />
    <path
       d="m193.99052 77.55517q-0.15625 -0.46875 -0.203125 -1.375q-0.578125 0.75 -1.46875 1.15625q-0.890625 0.40625 -1.875 0.40625q-1.421875 0 -2.3125 -0.796875q-0.875 -0.796875 -0.875 -2.0q0 -1.4375 1.203125 -2.28125q1.203125 -0.84375 3.34375 -0.84375l1.96875 0l0 -1.109375q0 -1.0625 -0.65625 -1.671875q-0.640625 -0.609375 -1.890625 -0.609375q-1.140625 0 -1.890625 0.59375q-0.75 0.578125 -0.75 1.40625l-1.09375 -0.015625q0 -1.171875 1.09375 -2.03125q1.09375 -0.859375 2.6875 -0.859375q1.65625 0 2.609375 0.828125q0.953125 0.8125 0.984375 2.28125l0 4.671875q0 1.4375 0.296875 2.140625l0 0.109375l-1.171875 0zm-3.421875 -0.78125q1.09375 0 1.953125 -0.53125q0.859375 -0.53125 1.25 -1.40625l0 -2.171875l-1.953125 0q-1.625 0.015625 -2.546875 0.59375q-0.921875 0.578125 -0.921875 1.59375q0 0.828125 0.609375 1.375q0.625 0.546875 1.609375 0.546875z"
       id="path194"
       fill-rule="nonzero"
       fill="#000000" />
    <path
       d="m174.98834 86.99328l-97.07086 139.3386"
       id="path196"
       fill-rule="evenodd"
       fill-opacity="0.0"
       fill="#000000" />
    <path
       d="m174.98836 86.99327l-93.64116 134.41547"
       id="path198"
       stroke-linejoin="round"
       stroke-linecap="butt"
       stroke-width="1.0"
       stroke="#000000"
       fill-rule="evenodd" />
    <path
       d="m 81.82551,215.27845 -2.333741,8.79362 7.440177,-5.23619 z"
       id="path200"
       inkscape:connector-curvature="0"
       style="fill:#000000;fill-rule:evenodd;stroke:#000000;stroke-width:1.88390708;stroke-linecap:butt" />
    <path
       d="m38.435696 242.6811l0 0c0 -12.776474 10.35738 -23.133865 23.133858 -23.133865l0 0c6.135479 0 12.019665 2.437317 16.358105 6.775757c4.3384476 4.33844 6.775757 10.222626 6.775757 16.358109l0 0c0 12.776474 -10.357384 23.133865 -23.133862 23.133865l0 0c-12.776478 0 -23.133858 -10.357391 -23.133858 -23.133865z"
       id="path202"
       fill-rule="evenodd"
       fill="#ffffff" />
    <path
       d="m38.435696 242.6811l0 0c0 -12.776474 10.35738 -23.133865 23.133858 -23.133865l0 0c6.135479 0 12.019665 2.437317 16.358105 6.775757c4.3384476 4.33844 6.775757 10.222626 6.775757 16.358109l0 0c0 12.776474 -10.357384 23.133865 -23.133862 23.133865l0 0c-12.776478 0 -23.133858 -10.357391 -23.133858 -23.133865z"
       id="path204"
       stroke-linejoin="round"
       stroke-linecap="butt"
       stroke-width="1.0"
       stroke="#000000"
       fill-rule="evenodd" />
    <path
       d="m65.75929 244.77298q0 2.3125 -1.03125 3.671875q-1.0156288 1.34375 -2.7343788 1.34375q-2.0625 0 -3.109375 -1.53125l-0.046875 1.34375l-1.03125 0l0 -14.0l1.09375 0l0 5.578125q1.03125 -1.609375 3.078125 -1.609375q1.75 0 2.7656288 1.328125q1.015625 1.328125 1.015625 3.71875l0 0.15625zm-1.09375 -0.1875q0 -1.953125 -0.7656288 -3.015625q-0.75 -1.0625 -2.125 -1.0625q-1.046875 0 -1.78125 0.515625q-0.71875 0.515625 -1.09375 1.515625l0 4.4375q0.8125 1.859375 2.890625 1.859375q1.34375 0 2.109375 -1.0625q0.7656288 -1.0625 0.7656288 -3.1875z"
       id="path206"
       fill-rule="nonzero"
       fill="#000000" />
    <path
       d="m191.34645 93.76903l0 124.566925"
       id="path208"
       fill-rule="evenodd"
       fill-opacity="0.0"
       fill="#000000" />
    <path
       d="m191.34645 93.76903l0 118.566925"
       id="path210"
       stroke-linejoin="round"
       stroke-linecap="butt"
       stroke-width="1.0"
       stroke="#000000"
       fill-rule="evenodd" />
    <path
       d="m 187.80775,208.60961 3.53866,9.7224 3.53867,-9.7224 z"
       id="path212"
       inkscape:connector-curvature="0"
       style="fill:#000000;fill-rule:evenodd;stroke:#000000;stroke-width:2.14239478;stroke-linecap:butt" />
    <path
       d="m168.21255 241.46588l0 0c0 -12.776474 10.357391 -23.133865 23.133865 -23.133865l0 0c6.135483 0 12.019669 2.437317 16.358109 6.775757c4.33844 4.33844 6.7757416 10.222626 6.7757416 16.358109l0 0c0 12.776474 -10.357376 23.13385 -23.13385 23.13385l0 0c-12.776474 0 -23.133865 -10.357376 -23.133865 -23.13385z"
       id="path214"
       fill-rule="evenodd"
       fill="#ffffff" />
    <path
       d="m168.21255 241.46588l0 0c0 -12.776474 10.357391 -23.133865 23.133865 -23.133865l0 0c6.135483 0 12.019669 2.437317 16.358109 6.775757c4.33844 4.33844 6.7757416 10.222626 6.7757416 16.358109l0 0c0 12.776474 -10.357376 23.13385 -23.13385 23.13385l0 0c-12.776474 0 -23.133865 -10.357376 -23.133865 -23.13385z"
       id="path216"
       stroke-linejoin="round"
       stroke-linecap="butt"
       stroke-width="1.0"
       stroke="#000000"
       fill-rule="evenodd" />
    <path
       d="m191.60365 247.6515q1.140625 0 1.90625 -0.640625q0.78125 -0.640625 0.84375 -1.671875l1.046875 0q-0.046875 0.90625 -0.578125 1.65625q-0.515625 0.734375 -1.375 1.15625q-0.859375 0.421875 -1.84375 0.421875q-1.9375 0 -3.078125 -1.34375q-1.125 -1.359375 -1.125 -3.640625l0 -0.328125q0 -1.453125 0.5 -2.5625q0.515625 -1.125 1.46875 -1.734375q0.953125 -0.609375 2.234375 -0.609375q1.609375 0 2.65625 0.96875q1.0625 0.953125 1.140625 2.53125l-1.046875 0q-0.078125 -1.15625 -0.84375 -1.859375q-0.75 -0.71875 -1.90625 -0.71875q-1.484375 0 -2.296875 1.0625q-0.8125 1.0625 -0.8125 2.984375l0 0.328125q0 1.890625 0.8125 2.953125q0.8125 1.046875 2.296875 1.046875z"
       id="path218"
       fill-rule="nonzero"
       fill="#000000" />
    <path
       d="m207.70456 86.99328l99.62204 139.3386"
       id="path220"
       fill-rule="evenodd"
       fill-opacity="0.0"
       fill="#000000" />
    <path
       d="m207.70456 86.99327l96.132416 134.45775"
       id="path222"
       stroke-linejoin="round"
       stroke-linecap="butt"
       stroke-width="1.0"
       stroke="#000000"
       fill-rule="evenodd" />
    <path
       d="m 297.10806,218.04375 8.42094,5.77385 -2.73943,-9.83591 z"
       id="path224"
       inkscape:connector-curvature="0"
       style="fill:#000000;fill-rule:evenodd;stroke:#000000;stroke-width:2.11421824;stroke-linecap:butt" />
    <path
       d="m300.54855 242.68242l0 0c0 -12.776474 10.357391 -23.133865 23.13385 -23.133865l0 0c6.135498 0 12.019684 2.437317 16.358124 6.775757c4.33844 4.33844 6.775757 10.222626 6.775757 16.358109l0 0c0 12.776474 -10.357391 23.133865 -23.13388 23.133865l0 0c-12.776459 0 -23.13385 -10.357391 -23.13385 -23.133865z"
       id="path226"
       fill-rule="evenodd"
       fill="#ffffff" />
    <path
       d="m300.54855 242.68242l0 0c0 -12.776474 10.357391 -23.133865 23.13385 -23.133865l0 0c6.135498 0 12.019684 2.437317 16.358124 6.775757c4.33844 4.33844 6.775757 10.222626 6.775757 16.358109l0 0c0 12.776474 -10.357391 23.133865 -23.13388 23.133865l0 0c-12.776459 0 -23.13385 -10.357391 -23.13385 -23.133865z"
       id="path228"
       stroke-linejoin="round"
       stroke-linecap="butt"
       stroke-width="1.0"
       stroke="#000000"
       fill-rule="evenodd" />
    <path
       d="m319.4835 244.58679q0 -2.296875 1.015625 -3.65625q1.03125 -1.359375 2.796875 -1.359375q1.984375 0 3.03125 1.5625l0 -5.53125l1.09375 0l0 14.0l-1.03125 0l-0.03125 -1.3125q-1.046875 1.5 -3.09375 1.5q-1.703125 0 -2.75 -1.375q-1.03125 -1.375 -1.03125 -3.703125l0 -0.125zm1.109375 0.1875q0 1.890625 0.75 2.984375q0.75 1.078125 2.125 1.078125q2.015625 0 2.859375 -1.78125l0 -4.625q-0.84375 -1.921875 -2.84375 -1.921875q-1.375 0 -2.140625 1.078125q-0.75 1.078125 -0.75 3.1875z"
       id="path230"
       fill-rule="nonzero"
       fill="#000000" />
    <path
       d="m174.98831 257.82397l-105.22835 128.0"
       id="path232"
       fill-rule="evenodd"
       fill-opacity="0.0"
       fill="#000000" />
    <path
       d="m174.98831 257.82397l-101.41807 123.36517"
       id="path234"
       stroke-linejoin="round"
       stroke-linecap="butt"
       stroke-width="1.0"
       stroke="#000000"
       fill-rule="evenodd" />
    <path
       d="m 74.354664,375.51957 -2.911588,8.25707 7.537956,-4.45377 z"
       id="path236"
       inkscape:connector-curvature="0"
       style="fill:#000000;fill-rule:evenodd;stroke:#000000;stroke-width:1.812958;stroke-linecap:butt" />
    <path
       d="m45.63517 409.95013l0 0c0 -13.324402 10.801571 -24.125977 24.125984 -24.125977l0 0c6.398613 0 12.535149 2.5418396 17.059647 7.0663147c4.524498 4.5245056 7.0663376 10.661041 7.0663376 17.059662l0 0c0 13.324402 -10.801567 24.125977 -24.125984 24.125977l0 0c-13.324413 0 -24.125984 -10.801575 -24.125984 -24.125977z"
       id="path238"
       fill-rule="evenodd"
       fill="#ffffff" />
    <path
       d="m45.63517 409.95013l0 0c0 -13.324402 10.801571 -24.125977 24.125984 -24.125977l0 0c6.398613 0 12.535149 2.5418396 17.059647 7.0663147c4.524498 4.5245056 7.0663376 10.661041 7.0663376 17.059662l0 0c0 13.324402 -10.801567 24.125977 -24.125984 24.125977l0 0c-13.324413 0 -24.125984 -10.801575 -24.125984 -24.125977z"
       id="path240"
       stroke-linejoin="round"
       stroke-linecap="butt"
       stroke-width="1.0"
       stroke="#000000"
       fill-rule="evenodd" />
    <path
       d="m70.176605 417.05762q-1.25 0 -2.265625 -0.625q-1.015625 -0.625 -1.59375 -1.71875q-0.5625 -1.109375 -0.5625 -2.484375l0 -0.390625q0 -1.421875 0.546875 -2.5625q0.5625 -1.140625 1.546875 -1.78125q0.984375 -0.65625 2.125 -0.65625q1.796875 0 2.84375 1.21875q1.0625 1.21875 1.0625 3.34375l0 0.609375l-7.03125 0l0 0.21875q0 1.671875 0.953125 2.796875q0.96875 1.109375 2.421875 1.109375q0.875 0 1.546875 -0.3125q0.671875 -0.328125 1.21875 -1.03125l0.6875 0.515625q-1.203125 1.75 -3.5 1.75zm-0.203125 -9.296875q-1.21875 0 -2.0625 0.90625q-0.84375 0.890625 -1.03125 2.421875l5.921875 0l0 -0.125q-0.046875 -1.421875 -0.8125 -2.3125q-0.765625 -0.890625 -2.015625 -0.890625z"
       id="path242"
       fill-rule="nonzero"
       fill="#000000" />
    <path
       d="m191.34642 264.59973l-1.5118103 121.22836"
       id="path244"
       fill-rule="evenodd"
       fill-opacity="0.0"
       fill="#000000" />
    <path
       d="m191.34642 264.59973l-1.4369965 115.22879"
       id="path246"
       stroke-linejoin="round"
       stroke-linecap="butt"
       stroke-width="1.0"
       stroke="#000000"
       fill-rule="evenodd" />
    <path
       d="m 186.72229,375.56998 3.07793,8.79632 3.29632,-8.71682 z"
       id="path248"
       inkscape:connector-curvature="0"
       style="fill:#000000;fill-rule:evenodd;stroke:#000000;stroke-width:1.92971575;stroke-linecap:butt" />
    <path
       d="m165.69888 409.95013l0 0c0 -13.324402 10.801575 -24.125977 24.125992 -24.125977l0 0c6.3986053 0 12.535141 2.5418396 17.059647 7.0663147c4.5244904 4.5245056 7.06633 10.661041 7.06633 17.059662l0 0c0 13.324402 -10.801575 24.125977 -24.125977 24.125977l0 0c-13.324417 0 -24.125992 -10.801575 -24.125992 -24.125977z"
       id="path250"
       fill-rule="evenodd"
       fill="#ffffff" />
    <path
       d="m165.69888 409.95013l0 0c0 -13.324402 10.801575 -24.125977 24.125992 -24.125977l0 0c6.3986053 0 12.535141 2.5418396 17.059647 7.0663147c4.5244904 4.5245056 7.06633 10.661041 7.06633 17.059662l0 0c0 13.324402 -10.801575 24.125977 -24.125977 24.125977l0 0c-13.324417 0 -24.125992 -10.801575 -24.125992 -24.125977z"
       id="path252"
       stroke-linejoin="round"
       stroke-linecap="butt"
       stroke-width="1.0"
       stroke="#000000"
       fill-rule="evenodd" />
    <path
       d="m188.93988 416.87012l0 -8.96875l-1.625 0l0 -0.890625l1.625 0l0 -1.1875q0 -1.515625 0.765625 -2.328125q0.78125 -0.8125 2.15625 -0.8125q0.609375 0 1.15625 0.15625l-0.09375 0.90625q-0.453125 -0.109375 -0.984375 -0.109375q-0.90625 0 -1.40625 0.5625q-0.5 0.5625 -0.5 1.59375l0 1.21875l2.34375 0l0 0.890625l-2.34375 0l0 8.96875l-1.09375 0z"
       id="path254"
       fill-rule="nonzero"
       fill="#000000" />
    <path
       d="m207.70453 257.82397l111.74802 127.811035"
       id="path256"
       fill-rule="evenodd"
       fill-opacity="0.0"
       fill="#000000" />
    <path
       d="m207.70451 257.82397l107.79875 123.29407"
       id="path258"
       stroke-linejoin="round"
       stroke-linecap="butt"
       stroke-width="1.0"
       stroke="#000000"
       fill-rule="evenodd" />
    <path
       d="m 309.99066,379.38547 7.70855,4.24417 -3.17701,-8.20623 z"
       id="path260"
       inkscape:connector-curvature="0"
       style="fill:#000000;fill-rule:evenodd;stroke:#000000;stroke-width:1.82213664;stroke-linecap:butt" />
    <path
       d="m295.33923 409.77167l0 0c0 -13.324432 10.801575 -24.126007 24.125977 -24.126007l0 0c6.3986206 0 12.535156 2.5418396 17.059662 7.066345c4.524475 4.5245056 7.0663147 10.661041 7.0663147 17.059662l0 0c0 13.324402 -10.801575 24.125977 -24.125977 24.125977l0 0c-13.324402 0 -24.125977 -10.801575 -24.125977 -24.125977z"
       id="path262"
       fill-rule="evenodd"
       fill="#ffffff" />
    <path
       d="m295.33923 409.77167l0 0c0 -13.324432 10.801575 -24.126007 24.125977 -24.126007l0 0c6.3986206 0 12.535156 2.5418396 17.059662 7.066345c4.524475 4.5245056 7.0663147 10.661041 7.0663147 17.059662l0 0c0 13.324402 -10.801575 24.125977 -24.125977 24.125977l0 0c-13.324402 0 -24.125977 -10.801575 -24.125977 -24.125977z"
       id="path264"
       stroke-linejoin="round"
       stroke-linecap="butt"
       stroke-width="1.0"
       stroke="#000000"
       fill-rule="evenodd" />
    <path
       d="m315.2754 411.67603q0 -2.3125 1.015625 -3.65625q1.03125 -1.359375 2.796875 -1.359375q2.015625 0 3.0625 1.59375l0.046875 -1.421875l1.015625 0l0 9.65625q0 1.90625 -1.0625 3.015625q-1.0625 1.109375 -2.890625 1.109375q-1.03125 0 -1.96875 -0.46875q-0.921875 -0.453125 -1.453125 -1.21875l0.609375 -0.65625q1.15625 1.421875 2.75 1.421875q1.359375 0 2.125 -0.8125q0.765625 -0.796875 0.796875 -2.21875l0 -1.25q-1.046875 1.46875 -3.0625 1.46875q-1.703125 0 -2.75 -1.359375q-1.03125 -1.375 -1.03125 -3.703125l0 -0.140625zm1.109375 0.1875q0 1.890625 0.75 2.984375q0.75 1.078125 2.125 1.078125q2.015625 0 2.859375 -1.796875l0 -4.59375q-0.390625 -0.9375 -1.109375 -1.4375q-0.71875 -0.5 -1.734375 -0.5q-1.375 0 -2.140625 1.078125q-0.75 1.078125 -0.75 3.1875z"
       id="path266"
       fill-rule="nonzero"
       fill="#000000" />
    <path
       d="m213.94226 51.958004l46.2677 0l0 37.35433l-46.2677 0z"
       id="path268"
       fill-rule="evenodd"
       fill-opacity="0.0"
       fill="#000000" />
    <path
       d="m226.47351 63.86613l-1.5 0l0 12.671871l1.5 0l0 0.734375l-2.359375 0l0 -14.140621l2.359375 0l0 0.734375zm9.546402 11.171871q-0.125 -0.359375 -0.15625 -1.078125q-0.453125 0.578125 -1.15625 0.90625q-0.6875 0.3125 -1.46875 0.3125q-1.125 0 -1.8125 -0.625q-0.6875 -0.625 -0.6875 -1.5625q0 -1.140625 0.9375 -1.796875q0.9375 -0.65625 2.625 -0.65625l1.546875 0l0 -0.875q0 -0.84375 -0.515625 -1.3125q-0.5 -0.46875 -1.484375 -0.46875q-0.890625 0 -1.484375 0.453125q-0.578125 0.453125 -0.578125 1.09375l-0.859375 0q0 -0.921875 0.859375 -1.59375q0.859375 -0.6875 2.109375 -0.6875q1.296875 0 2.03125 0.65625q0.75 0.640625 0.78125 1.796875l0 3.671875q0 1.125 0.234375 1.6875l0 0.078125l-0.921875 0zm-2.6875 -0.609375q0.859375 0 1.53125 -0.421875q0.6875 -0.421875 0.984375 -1.109375l0 -1.703125l-1.53125 0q-1.28125 0.015625 -2.0 0.46875q-0.71875 0.453125 -0.71875 1.25q0 0.65625 0.484375 1.09375q0.484375 0.421875 1.25 0.421875zm8.101913 -11.296871l2.375 0l0 14.140621l-2.375 0l0 -0.734375l1.515625 0l0 -12.671871l-1.515625 0l0 -0.734375z"
       id="path270"
       fill-rule="nonzero"
       fill="#ff0000" />
    <path
       d="m346.81628 221.12073l53.19684 0l0 37.35434l-53.19684 0z"
       id="path272"
       fill-rule="evenodd"
       fill-opacity="0.0"
       fill="#000000" />
    <path
       d="m359.34753 233.02885l-1.5 0l0 12.671875l1.5 0l0 0.734375l-2.359375 0l0 -14.140625l2.359375 0l0 0.734375zm4.3120117 7.234375q0 -1.8125 0.8125 -2.875q0.8125 -1.078125 2.1875 -1.078125q1.5625 0 2.390625 1.25l0 -4.359375l0.84375 0l0 11.0l-0.796875 0l-0.03125 -1.03125q-0.828125 1.171875 -2.421875 1.171875q-1.34375 0 -2.171875 -1.078125q-0.8125 -1.078125 -0.8125 -2.90625l0 -0.09375zm0.875 0.140625q0 1.484375 0.59375 2.34375q0.59375 0.859375 1.671875 0.859375q1.578125 0 2.25 -1.40625l0 -3.625q-0.671875 -1.515625 -2.234375 -1.515625q-1.078125 0 -1.6875 0.84375q-0.59375 0.84375 -0.59375 2.5zm10.0672 -8.109375l2.375 0l0 14.140625l-2.375 0l0 -0.734375l1.515625 0l0 -12.671875l-1.515625 0l0 -0.734375z"
       id="path274"
       fill-rule="nonzero"
       fill="#ff0000" />
    <path
       d="m81.59055 221.12073l72.661415 0l0 37.35434l-72.661415 0z"
       id="path276"
       fill-rule="evenodd"
       fill-opacity="0.0"
       fill="#000000" />
    <path
       d="m94.1218 233.02885l-1.5 0l0 12.671875l1.5 0l0 0.734375l-2.359375 0l0 -14.140625l2.359375 0l0 0.734375zm10.890152 7.375q0 1.8125 -0.796875 2.875q-0.796875 1.0625 -2.15625 1.0625q-1.609375 0 -2.4375 -1.203125l-0.046875 1.0625l-0.796875 0l0 -11.0l0.84375 0l0 4.375q0.828125 -1.265625 2.421875 -1.265625q1.375 0 2.171875 1.046875q0.796875 1.046875 0.796875 2.921875l0 0.125zm-0.859375 -0.140625q0 -1.53125 -0.59375 -2.359375q-0.59375 -0.84375 -1.671875 -0.84375q-0.8125 0 -1.390625 0.40625q-0.578125 0.40625 -0.875 1.1875l0 3.484375q0.65625 1.46875 2.28125 1.46875q1.0625 0 1.65625 -0.84375q0.59375 -0.84375 0.59375 -2.5zm5.2019806 -7.96875l2.375 0l0 14.140625l-2.375 0l0 -0.734375l1.515625 0l0 -12.671875l-1.515625 0l0 -0.734375z"
       id="path278"
       fill-rule="nonzero"
       fill="#ff0000" />
    <path
       d="m213.02887 221.11942l95.74805 0l0 37.35434l-95.74805 0z"
       id="path280"
       fill-rule="evenodd"
       fill-opacity="0.0"
       fill="#000000" />
    <path
       d="m225.56012 233.02754l-1.5 0l0 12.671875l1.5 0l0 0.734375l-2.359375 0l0 -14.140625l2.359375 0l0 0.734375zm7.530777 10.59375q0.890625 0 1.484375 -0.5q0.609375 -0.515625 0.671875 -1.3125l0.8125 0q-0.03125 0.703125 -0.4375 1.296875q-0.40625 0.578125 -1.09375 0.90625q-0.671875 0.328125 -1.4375 0.328125q-1.53125 0 -2.421875 -1.046875q-0.890625 -1.0625 -0.890625 -2.859375l0 -0.25q0 -1.15625 0.390625 -2.03125q0.40625 -0.875 1.15625 -1.359375q0.75 -0.484375 1.75 -0.484375q1.28125 0 2.109375 0.765625q0.828125 0.75 0.875 2.0l-0.8125 0q-0.0625 -0.921875 -0.671875 -1.46875q-0.59375 -0.5625 -1.5 -0.5625q-1.15625 0 -1.796875 0.84375q-0.640625 0.828125 -0.640625 2.34375l0 0.25q0 1.484375 0.640625 2.3125q0.640625 0.828125 1.8125 0.828125zm7.129471 -11.328125l2.375 0l0 14.140625l-2.375 0l0 -0.734375l1.515625 0l0 -12.671875l-1.515625 0l0 -0.734375z"
       id="path282"
       fill-rule="nonzero"
       fill="#ff0000" />
    <path
       d="m90.50175 391.27298l63.74804 0l0 37.35431l-63.74804 0z"
       id="path284"
       fill-rule="evenodd"
       fill-opacity="0.0"
       fill="#000000" />
    <path
       d="m103.033 403.1811l-1.5 0l0 12.671875l1.5 0l0 0.734375l-2.359375 0l0 -14.140625l2.359375 0l0 0.734375zm7.655777 11.3125q-0.984375 0 -1.78125 -0.484375q-0.796875 -0.484375 -1.25 -1.34375q-0.4375 -0.875 -0.4375 -1.96875l0 -0.296875q0 -1.125 0.4375 -2.015625q0.4375 -0.890625 1.203125 -1.40625q0.78125 -0.515625 1.671875 -0.515625q1.421875 0 2.234375 0.96875q0.828125 0.953125 0.828125 2.625l0 0.484375l-5.515625 0l0 0.15625q0 1.328125 0.75 2.203125q0.75 0.875 1.90625 0.875q0.6875 0 1.203125 -0.25q0.53125 -0.25 0.953125 -0.796875l0.546875 0.40625q-0.953125 1.359375 -2.75 1.359375zm-0.15625 -7.296875q-0.96875 0 -1.625 0.71875q-0.65625 0.703125 -0.796875 1.890625l4.640625 0l0 -0.09375q-0.03125 -1.109375 -0.640625 -1.8125q-0.59375 -0.703125 -1.578125 -0.703125zm7.18219 -4.75l2.375 0l0 14.140625l-2.375 0l0 -0.734375l1.515625 0l0 -12.671875l-1.515625 0l0 -0.734375z"
       id="path286"
       fill-rule="nonzero"
       fill="#ff0000" />
    <path
       d="m210.12589 389.16476l46.04724 0l0 37.35431l-46.04724 0z"
       id="path288"
       fill-rule="evenodd"
       fill-opacity="0.0"
       fill="#000000" />
    <path
       d="m222.65714 401.07288l-1.5 0l0 12.671875l1.5 0l0 0.734375l-2.359375 0l0 -14.140625l2.359375 0l0 0.734375zm5.280777 11.171875l0 -7.046875l-1.28125 0l0 -0.703125l1.28125 0l0 -0.9375q0 -1.1875 0.59375 -1.8125q0.609375 -0.640625 1.6875 -0.640625q0.5 0 0.921875 0.125l-0.078125 0.703125q-0.34375 -0.078125 -0.765625 -0.078125q-0.71875 0 -1.109375 0.4375q-0.390625 0.4375 -0.390625 1.25l0 0.953125l1.84375 0l0 0.703125l-1.84375 0l0 7.046875l-0.859375 0zm6.6815186 -11.90625l2.375 0l0 14.140625l-2.375 0l0 -0.734375l1.515625 0l0 -12.671875l-1.515625 0l0 -0.734375z"
       id="path290"
       fill-rule="nonzero"
       fill="#ff0000" />
    <path
       d="m343.58954 391.09387l50.078735 0l0 37.35434l-50.078735 0z"
       id="path292"
       fill-rule="evenodd"
       fill-opacity="0.0"
       fill="#000000" />
    <path
       d="m356.1208 403.002l-1.5 0l0 12.671875l1.5 0l0 0.734375l-2.359375 0l0 -14.140625l2.359375 0l0 0.734375zm4.3120117 7.234375q0 -1.828125 0.8125 -2.890625q0.8125 -1.0625 2.1875 -1.0625q1.578125 0 2.40625 1.265625l0.046875 -1.125l0.796875 0l0 7.59375q0 1.5 -0.84375 2.359375q-0.828125 0.875 -2.265625 0.875q-0.8125 0 -1.546875 -0.359375q-0.734375 -0.359375 -1.15625 -0.953125l0.484375 -0.515625q0.90625 1.109375 2.15625 1.109375q1.078125 0 1.671875 -0.640625q0.609375 -0.625 0.625 -1.75l0 -0.96875q-0.8125 1.140625 -2.390625 1.140625q-1.34375 0 -2.171875 -1.0625q-0.8125 -1.078125 -0.8125 -2.90625l0 -0.109375zm0.875 0.140625q0 1.484375 0.59375 2.34375q0.59375 0.859375 1.671875 0.859375q1.578125 0 2.234375 -1.421875l0 -3.609375q-0.296875 -0.734375 -0.859375 -1.125q-0.5625 -0.390625 -1.359375 -0.390625q-1.078125 0 -1.6875 0.84375q-0.59375 0.84375 -0.59375 2.5zm10.052887 -8.109375l2.375 0l0 14.140625l-2.375 0l0 -0.734375l1.515625 0l0 -12.671875l-1.515625 0l0 -0.734375z"
       id="path294"
       fill-rule="nonzero"
       fill="#ff0000" />
  </g>
</svg>
