<?xml version="1.0" encoding="UTF-8" standalone="no"?>
<svg
   xmlns:dc="http://purl.org/dc/elements/1.1/"
   xmlns:cc="http://creativecommons.org/ns#"
   xmlns:rdf="http://www.w3.org/1999/02/22-rdf-syntax-ns#"
   xmlns:svg="http://www.w3.org/2000/svg"
   xmlns="http://www.w3.org/2000/svg"
   xmlns:sodipodi="http://sodipodi.sourceforge.net/DTD/sodipodi-0.dtd"
   xmlns:inkscape="http://www.inkscape.org/namespaces/inkscape"
   version="1.1"
   viewBox="0.0 0.0 448.0472440944882 485.3622047244094"
   fill="none"
   stroke="none"
   stroke-linecap="square"
   stroke-miterlimit="10"
   id="svg2408"
   sodipodi:docname="Sync Dag Processing4.svg"
   inkscape:version="0.92.3 (2405546, 2018-03-11)">
  <metadata
     id="metadata2414">
    <rdf:RDF>
      <cc:Work
         rdf:about="">
        <dc:format>image/svg+xml</dc:format>
        <dc:type
           rdf:resource="http://purl.org/dc/dcmitype/StillImage" />
      </cc:Work>
    </rdf:RDF>
  </metadata>
  <defs
     id="defs2412" />
  <sodipodi:namedview
     pagecolor="#ffffff"
     bordercolor="#666666"
     borderopacity="1"
     objecttolerance="10"
     gridtolerance="10"
     guidetolerance="10"
     inkscape:pageopacity="0"
     inkscape:pageshadow="2"
     inkscape:window-width="1918"
     inkscape:window-height="1021"
     id="namedview2410"
     showgrid="false"
     inkscape:zoom="1.9449392"
     inkscape:cx="248.19667"
     inkscape:cy="216.89832"
     inkscape:window-x="0"
     inkscape:window-y="28"
     inkscape:window-maximized="0"
     inkscape:current-layer="g2406" />
  <clipPath
     id="p.0">
    <path
       d="m0 0l448.04724 0l0 485.3622l-448.04724 0l0 -485.3622z"
       clip-rule="nonzero"
       id="path2273" />
  </clipPath>
  <g
     clip-path="url(#p.0)"
     id="g2406">
    <path
       fill="#000000"
       fill-opacity="0.0"
       d="m0 0l448.04724 0l0 485.3622l-448.04724 0z"
       fill-rule="evenodd"
       id="path2276" />
    <path
       fill="#ffffff"
       d="m168.2126 70.63517l0 0c0 -12.776478 10.357376 -23.133858 23.13385 -23.133858l0 0c6.135483 0 12.019669 2.4373093 16.358109 6.775749c4.33844 4.33844 6.775757 10.222626 6.775757 16.358109l0 0c0 12.776474 -10.357376 23.133858 -23.133865 23.133858l0 0c-12.776474 0 -23.13385 -10.357384 -23.13385 -23.133858z"
       fill-rule="evenodd"
       id="path2278" />
    <path
       stroke="#000000"
       stroke-width="1.0"
       stroke-linejoin="round"
       stroke-linecap="butt"
       d="m168.2126 70.63517l0 0c0 -12.776478 10.357376 -23.133858 23.13385 -23.133858l0 0c6.135483 0 12.019669 2.4373093 16.358109 6.775749c4.33844 4.33844 6.775757 10.222626 6.775757 16.358109l0 0c0 12.776474 -10.357376 23.133858 -23.133865 23.133858l0 0c-12.776474 0 -23.13385 -10.357384 -23.13385 -23.133858z"
       fill-rule="evenodd"
       id="path2280" />
    <path
       fill="#000000"
       d="m193.99052 77.55517q-0.15625 -0.46875 -0.203125 -1.375q-0.578125 0.75 -1.46875 1.15625q-0.890625 0.40625 -1.875 0.40625q-1.421875 0 -2.3125 -0.796875q-0.875 -0.796875 -0.875 -2.0q0 -1.4375 1.203125 -2.28125q1.203125 -0.84375 3.34375 -0.84375l1.96875 0l0 -1.109375q0 -1.0625 -0.65625 -1.671875q-0.640625 -0.609375 -1.890625 -0.609375q-1.140625 0 -1.890625 0.59375q-0.75 0.578125 -0.75 1.40625l-1.09375 -0.015625q0 -1.171875 1.09375 -2.03125q1.09375 -0.859375 2.6875 -0.859375q1.65625 0 2.609375 0.828125q0.953125 0.8125 0.984375 2.28125l0 4.671875q0 1.4375 0.296875 2.140625l0 0.109375l-1.171875 0zm-3.421875 -0.78125q1.09375 0 1.953125 -0.53125q0.859375 -0.53125 1.25 -1.40625l0 -2.171875l-1.953125 0q-1.625 0.015625 -2.546875 0.59375q-0.921875 0.578125 -0.921875 1.59375q0 0.828125 0.609375 1.375q0.625 0.546875 1.609375 0.546875z"
       fill-rule="nonzero"
       id="path2282" />
    <path
       fill="#000000"
       fill-opacity="0.0"
       d="m174.98834 86.99328l-97.07086 139.3386"
       fill-rule="evenodd"
       id="path2284" />
    <path
       stroke="#000000"
       stroke-width="1.0"
       stroke-linejoin="round"
       stroke-linecap="butt"
       d="m174.98834 86.99328l-97.07086 139.3386"
       fill-rule="evenodd"
       id="path2286" />
    <path
       fill="#ffffff"
       d="m38.435696 242.6811l0 0c0 -12.776474 10.35738 -23.133865 23.133858 -23.133865l0 0c6.135479 0 12.019665 2.437317 16.358105 6.775757c4.3384476 4.33844 6.775757 10.222626 6.775757 16.358109l0 0c0 12.776474 -10.357384 23.133865 -23.133862 23.133865l0 0c-12.776478 0 -23.133858 -10.357391 -23.133858 -23.133865z"
       fill-rule="evenodd"
       id="path2288" />
    <path
       stroke="#000000"
       stroke-width="1.0"
       stroke-linejoin="round"
       stroke-linecap="butt"
       d="m38.435696 242.6811l0 0c0 -12.776474 10.35738 -23.133865 23.133858 -23.133865l0 0c6.135479 0 12.019665 2.437317 16.358105 6.775757c4.3384476 4.33844 6.775757 10.222626 6.775757 16.358109l0 0c0 12.776474 -10.357384 23.133865 -23.133862 23.133865l0 0c-12.776478 0 -23.133858 -10.357391 -23.133858 -23.133865z"
       fill-rule="evenodd"
       id="path2290" />
    <path
       fill="#000000"
       d="m65.75929 244.77298q0 2.3125 -1.03125 3.671875q-1.0156288 1.34375 -2.7343788 1.34375q-2.0625 0 -3.109375 -1.53125l-0.046875 1.34375l-1.03125 0l0 -14.0l1.09375 0l0 5.578125q1.03125 -1.609375 3.078125 -1.609375q1.75 0 2.7656288 1.328125q1.015625 1.328125 1.015625 3.71875l0 0.15625zm-1.09375 -0.1875q0 -1.953125 -0.7656288 -3.015625q-0.75 -1.0625 -2.125 -1.0625q-1.046875 0 -1.78125 0.515625q-0.71875 0.515625 -1.09375 1.515625l0 4.4375q0.8125 1.859375 2.890625 1.859375q1.34375 0 2.109375 -1.0625q0.7656288 -1.0625 0.7656288 -3.1875z"
       fill-rule="nonzero"
       id="path2292" />
    <path
       fill="#000000"
       fill-opacity="0.0"
       d="m191.34645 93.76903l0 124.566925"
       fill-rule="evenodd"
       id="path2294" />
    <path
       stroke="#000000"
       stroke-width="1.0"
       stroke-linejoin="round"
       stroke-linecap="butt"
       d="m191.34645 93.76903l0 124.566925"
       fill-rule="evenodd"
       id="path2296" />
    <path
       fill="#ffffff"
       d="m168.21255 241.46588l0 0c0 -12.776474 10.357391 -23.133865 23.133865 -23.133865l0 0c6.135483 0 12.019669 2.437317 16.358109 6.775757c4.33844 4.33844 6.7757416 10.222626 6.7757416 16.358109l0 0c0 12.776474 -10.357376 23.13385 -23.13385 23.13385l0 0c-12.776474 0 -23.133865 -10.357376 -23.133865 -23.13385z"
       fill-rule="evenodd"
       id="path2298" />
    <path
       stroke="#000000"
       stroke-width="1.0"
       stroke-linejoin="round"
       stroke-linecap="butt"
       d="m168.21255 241.46588l0 0c0 -12.776474 10.357391 -23.133865 23.133865 -23.133865l0 0c6.135483 0 12.019669 2.437317 16.358109 6.775757c4.33844 4.33844 6.7757416 10.222626 6.7757416 16.358109l0 0c0 12.776474 -10.357376 23.13385 -23.13385 23.13385l0 0c-12.776474 0 -23.133865 -10.357376 -23.133865 -23.13385z"
       fill-rule="evenodd"
       id="path2300" />
    <path
       fill="#000000"
       d="m191.60365 247.6515q1.140625 0 1.90625 -0.640625q0.78125 -0.640625 0.84375 -1.671875l1.046875 0q-0.046875 0.90625 -0.578125 1.65625q-0.515625 0.734375 -1.375 1.15625q-0.859375 0.421875 -1.84375 0.421875q-1.9375 0 -3.078125 -1.34375q-1.125 -1.359375 -1.125 -3.640625l0 -0.328125q0 -1.453125 0.5 -2.5625q0.515625 -1.125 1.46875 -1.734375q0.953125 -0.609375 2.234375 -0.609375q1.609375 0 2.65625 0.96875q1.0625 0.953125 1.140625 2.53125l-1.046875 0q-0.078125 -1.15625 -0.84375 -1.859375q-0.75 -0.71875 -1.90625 -0.71875q-1.484375 0 -2.296875 1.0625q-0.8125 1.0625 -0.8125 2.984375l0 0.328125q0 1.890625 0.8125 2.953125q0.8125 1.046875 2.296875 1.046875z"
       fill-rule="nonzero"
       id="path2302" />
    <path
       fill="#000000"
       fill-opacity="0.0"
       d="m207.70456 86.99328l99.62204 139.3386"
       fill-rule="evenodd"
       id="path2304" />
    <path
       stroke="#000000"
       stroke-width="1.0"
       stroke-linejoin="round"
       stroke-linecap="butt"
       d="m207.70456 86.99328l99.62204 139.3386"
       fill-rule="evenodd"
       id="path2306" />
    <path
       fill="#ffffff"
       d="m300.54855 242.68242l0 0c0 -12.776474 10.357391 -23.133865 23.13385 -23.133865l0 0c6.135498 0 12.019684 2.437317 16.358124 6.775757c4.33844 4.33844 6.775757 10.222626 6.775757 16.358109l0 0c0 12.776474 -10.357391 23.133865 -23.13388 23.133865l0 0c-12.776459 0 -23.13385 -10.357391 -23.13385 -23.133865z"
       fill-rule="evenodd"
       id="path2308" />
    <path
       stroke="#000000"
       stroke-width="1.0"
       stroke-linejoin="round"
       stroke-linecap="butt"
       d="m300.54855 242.68242l0 0c0 -12.776474 10.357391 -23.133865 23.13385 -23.133865l0 0c6.135498 0 12.019684 2.437317 16.358124 6.775757c4.33844 4.33844 6.775757 10.222626 6.775757 16.358109l0 0c0 12.776474 -10.357391 23.133865 -23.13388 23.133865l0 0c-12.776459 0 -23.13385 -10.357391 -23.13385 -23.133865z"
       fill-rule="evenodd"
       id="path2310" />
    <path
       fill="#000000"
       d="m319.4835 244.58679q0 -2.296875 1.015625 -3.65625q1.03125 -1.359375 2.796875 -1.359375q1.984375 0 3.03125 1.5625l0 -5.53125l1.09375 0l0 14.0l-1.03125 0l-0.03125 -1.3125q-1.046875 1.5 -3.09375 1.5q-1.703125 0 -2.75 -1.375q-1.03125 -1.375 -1.03125 -3.703125l0 -0.125zm1.109375 0.1875q0 1.890625 0.75 2.984375q0.75 1.078125 2.125 1.078125q2.015625 0 2.859375 -1.78125l0 -4.625q-0.84375 -1.921875 -2.84375 -1.921875q-1.375 0 -2.140625 1.078125q-0.75 1.078125 -0.75 3.1875z"
       fill-rule="nonzero"
       id="path2312" />
    <path
       fill="#000000"
       fill-opacity="0.0"
       d="m174.98831 257.82397l-105.22835 128.0"
       fill-rule="evenodd"
       id="path2314" />
    <path
       stroke="#000000"
       stroke-width="1.0"
       stroke-linejoin="round"
       stroke-linecap="butt"
       d="m174.98831 257.82397l-105.22835 128.0"
       fill-rule="evenodd"
       id="path2316" />
    <path
       fill="#ffffff"
       d="m45.63517 409.95013l0 0c0 -13.324402 10.801571 -24.125977 24.125984 -24.125977l0 0c6.398613 0 12.535149 2.5418396 17.059647 7.0663147c4.524498 4.5245056 7.0663376 10.661041 7.0663376 17.059662l0 0c0 13.324402 -10.801567 24.125977 -24.125984 24.125977l0 0c-13.324413 0 -24.125984 -10.801575 -24.125984 -24.125977z"
       fill-rule="evenodd"
       id="path2318" />
    <path
       stroke="#000000"
       stroke-width="1.0"
       stroke-linejoin="round"
       stroke-linecap="butt"
       d="m45.63517 409.95013l0 0c0 -13.324402 10.801571 -24.125977 24.125984 -24.125977l0 0c6.398613 0 12.535149 2.5418396 17.059647 7.0663147c4.524498 4.5245056 7.0663376 10.661041 7.0663376 17.059662l0 0c0 13.324402 -10.801567 24.125977 -24.125984 24.125977l0 0c-13.324413 0 -24.125984 -10.801575 -24.125984 -24.125977z"
       fill-rule="evenodd"
       id="path2320" />
    <path
       fill="#000000"
       d="m70.176605 417.05762q-1.25 0 -2.265625 -0.625q-1.015625 -0.625 -1.59375 -1.71875q-0.5625 -1.109375 -0.5625 -2.484375l0 -0.390625q0 -1.421875 0.546875 -2.5625q0.5625 -1.140625 1.546875 -1.78125q0.984375 -0.65625 2.125 -0.65625q1.796875 0 2.84375 1.21875q1.0625 1.21875 1.0625 3.34375l0 0.609375l-7.03125 0l0 0.21875q0 1.671875 0.953125 2.796875q0.96875 1.109375 2.421875 1.109375q0.875 0 1.546875 -0.3125q0.671875 -0.328125 1.21875 -1.03125l0.6875 0.515625q-1.203125 1.75 -3.5 1.75zm-0.203125 -9.296875q-1.21875 0 -2.0625 0.90625q-0.84375 0.890625 -1.03125 2.421875l5.921875 0l0 -0.125q-0.046875 -1.421875 -0.8125 -2.3125q-0.765625 -0.890625 -2.015625 -0.890625z"
       fill-rule="nonzero"
       id="path2322" />
    <path
       fill="#000000"
       fill-opacity="0.0"
       d="m191.34642 264.59973l-1.5118103 121.22836"
       fill-rule="evenodd"
       id="path2324" />
    <path
       stroke="#000000"
       stroke-width="1.0"
       stroke-linejoin="round"
       stroke-linecap="butt"
       d="m191.34642 264.59973l-1.5118103 121.22836"
       fill-rule="evenodd"
       id="path2326" />
    <path
       fill="#ffffff"
       d="m165.69888 409.95013l0 0c0 -13.324402 10.801575 -24.125977 24.125992 -24.125977l0 0c6.3986053 0 12.535141 2.5418396 17.059647 7.0663147c4.5244904 4.5245056 7.06633 10.661041 7.06633 17.059662l0 0c0 13.324402 -10.801575 24.125977 -24.125977 24.125977l0 0c-13.324417 0 -24.125992 -10.801575 -24.125992 -24.125977z"
       fill-rule="evenodd"
       id="path2328" />
    <path
       stroke="#000000"
       stroke-width="1.0"
       stroke-linejoin="round"
       stroke-linecap="butt"
       d="m165.69888 409.95013l0 0c0 -13.324402 10.801575 -24.125977 24.125992 -24.125977l0 0c6.3986053 0 12.535141 2.5418396 17.059647 7.0663147c4.5244904 4.5245056 7.06633 10.661041 7.06633 17.059662l0 0c0 13.324402 -10.801575 24.125977 -24.125977 24.125977l0 0c-13.324417 0 -24.125992 -10.801575 -24.125992 -24.125977z"
       fill-rule="evenodd"
       id="path2330" />
    <path
       fill="#000000"
       d="m188.93988 416.87012l0 -8.96875l-1.625 0l0 -0.890625l1.625 0l0 -1.1875q0 -1.515625 0.765625 -2.328125q0.78125 -0.8125 2.15625 -0.8125q0.609375 0 1.15625 0.15625l-0.09375 0.90625q-0.453125 -0.109375 -0.984375 -0.109375q-0.90625 0 -1.40625 0.5625q-0.5 0.5625 -0.5 1.59375l0 1.21875l2.34375 0l0 0.890625l-2.34375 0l0 8.96875l-1.09375 0z"
       fill-rule="nonzero"
       id="path2332" />
    <path
       fill="#000000"
       fill-opacity="0.0"
       d="m207.70453 257.82397l111.74802 127.811035"
       fill-rule="evenodd"
       id="path2334" />
    <path
       stroke="#000000"
       stroke-width="1.0"
       stroke-linejoin="round"
       stroke-linecap="butt"
       d="m207.70453 257.82397l111.74802 127.811035"
       fill-rule="evenodd"
       id="path2336" />
    <path
       fill="#ffffff"
       d="m295.33923 409.77167l0 0c0 -13.324432 10.801575 -24.126007 24.125977 -24.126007l0 0c6.3986206 0 12.535156 2.5418396 17.059662 7.066345c4.524475 4.5245056 7.0663147 10.661041 7.0663147 17.059662l0 0c0 13.324402 -10.801575 24.125977 -24.125977 24.125977l0 0c-13.324402 0 -24.125977 -10.801575 -24.125977 -24.125977z"
       fill-rule="evenodd"
       id="path2338" />
    <path
       stroke="#000000"
       stroke-width="1.0"
       stroke-linejoin="round"
       stroke-linecap="butt"
       d="m295.33923 409.77167l0 0c0 -13.324432 10.801575 -24.126007 24.125977 -24.126007l0 0c6.3986206 0 12.535156 2.5418396 17.059662 7.066345c4.524475 4.5245056 7.0663147 10.661041 7.0663147 17.059662l0 0c0 13.324402 -10.801575 24.125977 -24.125977 24.125977l0 0c-13.324402 0 -24.125977 -10.801575 -24.125977 -24.125977z"
       fill-rule="evenodd"
       id="path2340" />
    <path
       fill="#000000"
       d="m315.2754 411.67603q0 -2.3125 1.015625 -3.65625q1.03125 -1.359375 2.796875 -1.359375q2.015625 0 3.0625 1.59375l0.046875 -1.421875l1.015625 0l0 9.65625q0 1.90625 -1.0625 3.015625q-1.0625 1.109375 -2.890625 1.109375q-1.03125 0 -1.96875 -0.46875q-0.921875 -0.453125 -1.453125 -1.21875l0.609375 -0.65625q1.15625 1.421875 2.75 1.421875q1.359375 0 2.125 -0.8125q0.765625 -0.796875 0.796875 -2.21875l0 -1.25q-1.046875 1.46875 -3.0625 1.46875q-1.703125 0 -2.75 -1.359375q-1.03125 -1.375 -1.03125 -3.703125l0 -0.140625zm1.109375 0.1875q0 1.890625 0.75 2.984375q0.75 1.078125 2.125 1.078125q2.015625 0 2.859375 -1.796875l0 -4.59375q-0.390625 -0.9375 -1.109375 -1.4375q-0.71875 -0.5 -1.734375 -0.5q-1.375 0 -2.140625 1.078125q-0.75 1.078125 -0.75 3.1875z"
       fill-rule="nonzero"
       id="path2342" />
    <path
       fill="#000000"
       fill-opacity="0.0"
       d="m213.94226 51.958004l95.74802 0l0 37.35433l-95.74802 0z"
       fill-rule="evenodd"
       id="path2344" />
    <path
       fill="#000000"
       fill-opacity="0.0"
       d="m346.81628 221.12073l90.74014 0l0 37.35434l-90.74014 0z"
       fill-rule="evenodd"
       id="path2348" />
    <path
       fill="#000000"
       fill-opacity="0.0"
       d="m81.59055 221.12073l99.62205 0l0 37.35434l-99.62205 0z"
       fill-rule="evenodd"
       id="path2352" />
    <path
       fill="#000000"
       fill-opacity="0.0"
       d="m207.70341 221.03018l125.291336 0l0 37.35434l-125.291336 0z"
       fill-rule="evenodd"
       id="path2356" />
    <path
       fill="#000000"
       fill-opacity="0.0"
       d="m90.50119 391.27298l82.456696 0l0 37.35431l-82.456696 0z"
       fill-rule="evenodd"
       id="path2360" />
    <path
       fill="#000000"
       fill-opacity="0.0"
       d="m210.12605 389.16534l79.27559 0l0 37.35434l-79.27559 0z"
       fill-rule="evenodd"
       id="path2364" />
    <path
       fill="#000000"
       fill-opacity="0.0"
       d="m343.59122 391.09448l82.456696 0l0 37.35434l-82.456696 0z"
       fill-rule="evenodd"
       id="path2368" />
    <path
       fill="#ffffff"
       d="m332.99475 65.367455l0 0c0 -12.776478 10.357391 -23.133858 23.13385 -23.133858l0 0c6.135498 0 12.019684 2.4373093 16.358124 6.775749c4.33844 4.33844 6.775757 10.222626 6.775757 16.358109l0 0c0 12.776474 -10.357391 23.133858 -23.13388 23.133858l0 0c-12.776459 0 -23.13385 -10.357384 -23.13385 -23.133858z"
       fill-rule="evenodd"
       id="path2372" />
    <path
       stroke="#000000"
       stroke-width="1.0"
       stroke-linejoin="round"
       stroke-linecap="butt"
       stroke-dasharray="1.0,3.0"
       d="m332.99475 65.367455l0 0c0 -12.776478 10.357391 -23.133858 23.13385 -23.133858l0 0c6.135498 0 12.019684 2.4373093 16.358124 6.775749c4.33844 4.33844 6.775757 10.222626 6.775757 16.358109l0 0c0 12.776474 -10.357391 23.133858 -23.13388 23.133858l0 0c-12.776459 0 -23.13385 -10.357384 -23.13385 -23.133858z"
       fill-rule="evenodd"
       id="path2374" />
    <path
       fill="#000000"
       d="m356.5977 65.55308l4.046875 0l0 1.015625l-4.046875 0l0 4.390625l-1.09375 0l0 -4.390625l-3.953125 0l0 -1.015625l3.953125 0l0 -4.25l1.09375 0l0 4.25z"
       fill-rule="nonzero"
       id="path2376" />
    <path
       fill="#000000"
       fill-opacity="0.0"
       d="m61.565777 219.55234l278.20474 -137.82678"
       fill-rule="evenodd"
       id="path2378" />
    <path
       stroke="#999999"
       stroke-width="1.0"
       stroke-linejoin="round"
       stroke-linecap="butt"
       stroke-dasharray="1.0,3.0"
       d="m61.565777 219.55234l278.20474 -137.82678"
       fill-rule="evenodd"
       id="path2380" />
    <path
       fill="#000000"
       fill-opacity="0.0"
       d="m191.34642 218.33202l148.40944 -136.59842"
       fill-rule="evenodd"
       id="path2382" />
    <path
       stroke="#999999"
       stroke-width="1.0"
       stroke-linejoin="round"
       stroke-linecap="butt"
       stroke-dasharray="1.0,3.0"
       d="m191.34642 218.33202l148.40944 -136.59842"
       fill-rule="evenodd"
       id="path2384" />
    <path
       fill="#000000"
       fill-opacity="0.0"
       d="m321.97522 218.51297l17.795288 -136.78741"
       fill-rule="evenodd"
       id="path2386" />
    <path
       stroke="#999999"
       stroke-width="1.0"
       stroke-linejoin="round"
       stroke-linecap="butt"
       stroke-dasharray="1.0,3.0"
       d="m321.97522 218.51297l17.795288 -136.78741"
       fill-rule="evenodd"
       id="path2388" />
    <path
       fill="#000000"
       fill-opacity="0.0"
       d="m213.94226 70.63517l125.82678 11.0866165"
       fill-rule="evenodd"
       id="path2390" />
    <path
       stroke="#999999"
       stroke-width="1.0"
       stroke-linejoin="round"
       stroke-linecap="butt"
       stroke-dasharray="1.0,3.0"
       d="m213.94226 70.63517l125.82678 11.0866165"
       fill-rule="evenodd"
       id="path2392" />
    <path
       fill="#000000"
       fill-opacity="0.0"
       d="m69.75475 385.82004l270.01575 -304.09448"
       fill-rule="evenodd"
       id="path2394" />
    <path
       stroke="#999999"
       stroke-width="1.0"
       stroke-linejoin="round"
       stroke-linecap="butt"
       stroke-dasharray="1.0,3.0"
       d="m69.75475 385.82004l270.01575 -304.09448"
       fill-rule="evenodd"
       id="path2396" />
    <path
       fill="#000000"
       fill-opacity="0.0"
       d="m189.82487 385.82416l149.95274 -304.09448"
       fill-rule="evenodd"
       id="path2398" />
    <path
       stroke="#999999"
       stroke-width="1.0"
       stroke-linejoin="round"
       stroke-linecap="butt"
       stroke-dasharray="1.0,3.0"
       d="m189.82487 385.82416l149.95274 -304.09448"
       fill-rule="evenodd"
       id="path2400" />
    <path
       fill="#000000"
       fill-opacity="0.0"
       d="m319.4652 385.64566l20.314972 -303.90552"
       fill-rule="evenodd"
       id="path2402" />
    <path
       stroke="#999999"
       stroke-width="1.0"
       stroke-linejoin="round"
       stroke-linecap="butt"
       stroke-dasharray="1.0,3.0"
       d="m319.4652 385.64566l20.314972 -303.90552"
       fill-rule="evenodd"
       id="path2404" />
    <text
       xml:space="preserve"
       style="font-style:normal;font-variant:normal;font-weight:300;font-stretch:normal;font-size:13.33333302px;line-height:1.25;font-family:Roboto;-inkscape-font-specification:'Roboto Light';font-variant-ligatures:normal;font-variant-caps:normal;font-variant-numeric:normal;font-feature-settings:normal;text-align:start;letter-spacing:0px;word-spacing:0px;writing-mode:lr-tb;text-anchor:start;fill:#000000;fill-opacity:1;stroke:none"
       x="215.57129"
       y="60.056553"
       id="text1289"><tspan
         sodipodi:role="line"
         id="tspan1287"
         x="215.57129"
         y="60.056553"
         style="fill:#aa0000"><tspan
   style="fill:#ff0000"
   id="tspan1291">[ a,b,c,d,e,f,g ]</tspan> </tspan></text>
    <text
       xml:space="preserve"
       style="font-style:normal;font-variant:normal;font-weight:300;font-stretch:normal;font-size:13.33333302px;line-height:1.25;font-family:Roboto;-inkscape-font-specification:'Roboto Light';font-variant-ligatures:normal;font-variant-caps:normal;font-variant-numeric:normal;font-feature-settings:normal;text-align:start;letter-spacing:0px;word-spacing:0px;writing-mode:lr-tb;text-anchor:start;fill:#000000;fill-opacity:1;stroke:none"
       x="84.975945"
       y="246.18063"
       id="text1289-8"><tspan
         sodipodi:role="line"
         id="tspan1287-7"
         x="84.975945"
         y="246.18063"
         style="fill:#aa0000"><tspan
   style="fill:#ff0000"
   id="tspan1291-4">[ a,b,c,d,e,f,g ]</tspan> </tspan></text>
    <text
       xml:space="preserve"
       style="font-style:normal;font-variant:normal;font-weight:300;font-stretch:normal;font-size:13.33333302px;line-height:1.25;font-family:Roboto;-inkscape-font-specification:'Roboto Light';font-variant-ligatures:normal;font-variant-caps:normal;font-variant-numeric:normal;font-feature-settings:normal;text-align:start;letter-spacing:0px;word-spacing:0px;writing-mode:lr-tb;text-anchor:start;fill:#000000;fill-opacity:1;stroke:none"
       x="218.14206"
       y="247.20892"
       id="text1289-6"><tspan
         sodipodi:role="line"
         id="tspan1287-3"
         x="218.14206"
         y="247.20892"
         style="fill:#aa0000"><tspan
   style="fill:#ff0000"
   id="tspan1291-8">[ a,b,c,d,e,f,g ]</tspan> </tspan></text>
    <text
       xml:space="preserve"
       style="font-style:normal;font-variant:normal;font-weight:300;font-stretch:normal;font-size:13.33333302px;line-height:1.25;font-family:Roboto;-inkscape-font-specification:'Roboto Light';font-variant-ligatures:normal;font-variant-caps:normal;font-variant-numeric:normal;font-feature-settings:normal;text-align:start;letter-spacing:0px;word-spacing:0px;writing-mode:lr-tb;text-anchor:start;fill:#000000;fill-opacity:1;stroke:none"
       x="351.30817"
       y="245.66647"
       id="text1289-0"><tspan
         sodipodi:role="line"
         id="tspan1287-4"
         x="351.30817"
         y="245.66647"
         style="fill:#aa0000"><tspan
   style="fill:#ff0000"
   id="tspan1291-9">[ a,b,c,d,e,f,g ]</tspan> </tspan></text>
    <text
       xml:space="preserve"
       style="font-style:normal;font-variant:normal;font-weight:300;font-stretch:normal;font-size:13.33333302px;line-height:1.25;font-family:Roboto;-inkscape-font-specification:'Roboto Light';font-variant-ligatures:normal;font-variant-caps:normal;font-variant-numeric:normal;font-feature-settings:normal;text-align:start;letter-spacing:0px;word-spacing:0px;writing-mode:lr-tb;text-anchor:start;fill:#000000;fill-opacity:1;stroke:none"
       x="91.005653"
       y="395.87476"
       id="text1289-7"><tspan
         sodipodi:role="line"
         id="tspan1287-9"
         x="91.005653"
         y="395.87476"
         style="fill:#aa0000"><tspan
   style="fill:#ff0000"
   id="tspan1291-7">[ a,b,c,d,e,f,g ]</tspan> </tspan></text>
    <text
       xml:space="preserve"
       style="font-style:normal;font-variant:normal;font-weight:300;font-stretch:normal;font-size:13.33333302px;line-height:1.25;font-family:Roboto;-inkscape-font-specification:'Roboto Light';font-variant-ligatures:normal;font-variant-caps:normal;font-variant-numeric:normal;font-feature-settings:normal;text-align:start;letter-spacing:0px;word-spacing:0px;writing-mode:lr-tb;text-anchor:start;fill:#000000;fill-opacity:1;stroke:none"
       x="216.59959"
       y="415.85172"
       id="text1289-5"><tspan
         sodipodi:role="line"
         id="tspan1287-1"
         x="216.59959"
         y="415.85172"
         style="fill:#aa0000"><tspan
   style="fill:#ff0000"
   id="tspan1291-3">[ a,b,c,d,e,f,g ]</tspan> </tspan></text>
    <text
       xml:space="preserve"
       style="font-style:normal;font-variant:normal;font-weight:300;font-stretch:normal;font-size:13.33333302px;line-height:1.25;font-family:Roboto;-inkscape-font-specification:'Roboto Light';font-variant-ligatures:normal;font-variant-caps:normal;font-variant-numeric:normal;font-feature-settings:normal;text-align:start;letter-spacing:0px;word-spacing:0px;writing-mode:lr-tb;text-anchor:start;fill:#000000;fill-opacity:1;stroke:none"
       x="348.22327"
       y="413.28098"
       id="text1289-78"><tspan
         sodipodi:role="line"
         id="tspan1287-0"
         x="348.22327"
         y="413.28098"
         style="fill:#aa0000"><tspan
   style="fill:#ff0000"
   id="tspan1291-95">[ a,b,c,d,e,f,g ]</tspan> </tspan></text>
  </g>
</svg>
