<svg version="1.1" viewBox="0.0 0.0 386.01049868766404 251.96850393700788" fill="none" stroke="none" stroke-linecap="square" stroke-miterlimit="10" xmlns:xlink="http://www.w3.org/1999/xlink" xmlns="http://www.w3.org/2000/svg"><clipPath id="p.0"><path d="m0 0l386.0105 0l0 251.9685l-386.0105 0l0 -251.9685z" clip-rule="nonzero"/></clipPath><g clip-path="url(#p.0)"><path fill="#000000" fill-opacity="0.0" d="m0 0l386.0105 0l0 251.9685l-386.0105 0z" fill-rule="evenodd"/><path fill="#cfe2f3" d="m131.64305 212.76115l0 0c0 -13.654907 45.1875 -24.724411 100.92912 -24.724411l0 0c55.74164 0 100.92914 11.069504 100.92914 24.724411l0 0c0 13.6549225 -45.1875 24.724411 -100.92914 24.724411l0 0c-55.741623 0 -100.92912 -11.069489 -100.92912 -24.724411z" fill-rule="evenodd"/><path stroke="#000000" stroke-width="1.0" stroke-linejoin="round" stroke-linecap="butt" d="m131.64305 212.76115l0 0c0 -13.654907 45.1875 -24.724411 100.92912 -24.724411l0 0c55.74164 0 100.92914 11.069504 100.92914 24.724411l0 0c0 13.6549225 -45.1875 24.724411 -100.92914 24.724411l0 0c-55.741623 0 -100.92912 -11.069489 -100.92912 -24.724411z" fill-rule="evenodd"/><path fill="#cfe2f3" d="m132.07611 106.979004l0 0c0 -13.654915 45.187515 -24.724411 100.92914 -24.724411l0 0c55.741608 0 100.92914 11.069496 100.92914 24.724411l0 0c0 13.654915 -45.18753 24.724411 -100.92914 24.724411l0 0c-55.741623 0 -100.92914 -11.069496 -100.92914 -24.724411z" fill-rule="evenodd"/><path stroke="#000000" stroke-width="1.0" stroke-linejoin="round" stroke-linecap="butt" d="m132.07611 106.979004l0 0c0 -13.654915 45.187515 -24.724411 100.92914 -24.724411l0 0c55.741608 0 100.92914 11.069496 100.92914 24.724411l0 0c0 13.654915 -45.18753 24.724411 -100.92914 24.724411l0 0c-55.741623 0 -100.92914 -11.069496 -100.92914 -24.724411z" fill-rule="evenodd"/><path fill="#cfe2f3" d="m7.5275593 210.07086l0 0c0 -22.230545 13.762836 -40.25197 30.740156 -40.25197l0 0c8.152798 0 15.971676 4.2408295 21.736576 11.7895355c5.7648964 7.548706 9.003582 17.786957 9.003582 28.462433l0 0c0 22.23056 -13.762836 40.25197 -30.740158 40.25197l0 0c-16.97732 0 -30.740156 -18.021408 -30.740156 -40.25197z" fill-rule="evenodd"/><path stroke="#000000" stroke-width="1.0" stroke-linejoin="round" stroke-linecap="butt" d="m7.5275593 210.07086l0 0c0 -22.230545 13.762836 -40.25197 30.740156 -40.25197l0 0c8.152798 0 15.971676 4.2408295 21.736576 11.7895355c5.7648964 7.548706 9.003582 17.786957 9.003582 28.462433l0 0c0 22.23056 -13.762836 40.25197 -30.740158 40.25197l0 0c-16.97732 0 -30.740156 -18.021408 -30.740156 -40.25197z" fill-rule="evenodd"/><path fill="#cfe2f3" d="m87.93964 212.76378l0 0c0 -17.916641 11.6405945 -32.44095 26.0 -32.44095l0 0c6.8956223 0 13.508827 3.4178772 18.384766 9.5017395c4.875946 6.0838623 7.6152344 14.335342 7.6152344 22.939209l0 0c0 17.916641 -11.6405945 32.44095 -26.0 32.44095l0 0c-14.3594055 0 -26.0 -14.524307 -26.0 -32.44095z" fill-rule="evenodd"/><path stroke="#000000" stroke-width="1.0" stroke-linejoin="round" stroke-linecap="butt" d="m87.93964 212.76378l0 0c0 -17.916641 11.6405945 -32.44095 26.0 -32.44095l0 0c6.8956223 0 13.508827 3.4178772 18.384766 9.5017395c4.875946 6.0838623 7.6152344 14.335342 7.6152344 22.939209l0 0c0 17.916641 -11.6405945 32.44095 -26.0 32.44095l0 0c-14.3594055 0 -26.0 -14.524307 -26.0 -32.44095z" fill-rule="evenodd"/><path fill="#cfe2f3" d="m50.07874 110.419945l0 0c0 -30.11039 13.762836 -54.519684 30.740162 -54.519684l0 0c8.152794 0 15.971672 5.7440224 21.736572 15.968445c5.7648926 10.224426 9.003578 24.09172 9.003578 38.55124l0 0c0 30.11039 -13.762833 54.51969 -30.74015 54.51969l0 0c-16.977325 0 -30.740162 -24.409302 -30.740162 -54.51969z" fill-rule="evenodd"/><path stroke="#000000" stroke-width="1.0" stroke-linejoin="round" stroke-linecap="butt" d="m50.07874 110.419945l0 0c0 -30.11039 13.762836 -54.519684 30.740162 -54.519684l0 0c8.152794 0 15.971672 5.7440224 21.736572 15.968445c5.7648926 10.224426 9.003578 24.09172 9.003578 38.55124l0 0c0 30.11039 -13.762833 54.51969 -30.74015 54.51969l0 0c-16.977325 0 -30.740162 -24.409302 -30.740162 -54.51969z" fill-rule="evenodd"/><path fill="#cfe2f3" d="m58.93176 31.175854l0 0c0 -13.654915 45.18751 -24.724411 100.92912 -24.724411l0 0c55.741623 0 100.92915 11.069495 100.92915 24.724411l0 0c0 13.654915 -45.18753 24.724407 -100.92915 24.724407l0 0c-55.741615 0 -100.92912 -11.069492 -100.92912 -24.724407z" fill-rule="evenodd"/><path stroke="#000000" stroke-width="1.0" stroke-linejoin="round" stroke-linecap="butt" d="m58.93176 31.175854l0 0c0 -13.654915 45.18751 -24.724411 100.92912 -24.724411l0 0c55.741623 0 100.92915 11.069495 100.92915 24.724411l0 0c0 13.654915 -45.18753 24.724407 -100.92915 24.724407l0 0c-55.741615 0 -100.92912 -11.069492 -100.92912 -24.724407z" fill-rule="evenodd"/><path fill="#999999" d="m135.20341 30.653543l0 0c0 -11.750185 9.525406 -21.27559 21.275589 -21.27559l0 0c5.642639 0 11.054169 2.2415295 15.044113 6.231477c3.9899445 3.9899473 6.231476 9.401477 6.231476 15.044114l0 0c0 11.750185 -9.525406 21.27559 -21.275589 21.27559l0 0c-11.750183 0 -21.275589 -9.525406 -21.275589 -21.27559z" fill-rule="evenodd"/><path stroke="#000000" stroke-width="1.0" stroke-linejoin="round" stroke-linecap="butt" d="m135.20341 30.653543l0 0c0 -11.750185 9.525406 -21.27559 21.275589 -21.27559l0 0c5.642639 0 11.054169 2.2415295 15.044113 6.231477c3.9899445 3.9899473 6.231476 9.401477 6.231476 15.044114l0 0c0 11.750185 -9.525406 21.27559 -21.275589 21.27559l0 0c-11.750183 0 -21.275589 -9.525406 -21.275589 -21.27559z" fill-rule="evenodd"/><path fill="#000000" d="m160.02864 32.761044q0 2.25 -1.03125 3.625q-1.015625 1.375 -2.78125 1.375q-1.796875 0 -2.828125 -1.140625l0 4.75l-1.671875 0l0 -13.656252l1.53125 0l0.078125 1.09375q1.03125 -1.265625 2.859375 -1.265625q1.78125 0 2.8125 1.34375q1.03125 1.328125 1.03125 3.718752l0 0.15625zm-1.671875 -0.203125q0 -1.6562519 -0.71875 -2.625002q-0.703125 -0.96875 -1.953125 -0.96875q-1.53125 0 -2.296875 1.359375l0 4.703127q0.765625 1.359375 2.328125 1.359375q1.203125 0 1.921875 -0.953125q0.71875 -0.96875 0.71875 -2.875z" fill-rule="nonzero"/><path fill="#999999" d="m59.54462 106.979004l0 0c0 -11.750183 9.525402 -21.275589 21.275593 -21.275589l0 0c5.6426315 0 11.054161 2.2415237 15.044113 6.231476c3.9899445 3.9899445 6.231476 9.401474 6.231476 15.044113l0 0c0 11.750183 -9.525406 21.275589 -21.275589 21.275589l0 0c-11.750191 0 -21.275593 -9.525406 -21.275593 -21.275589z" fill-rule="evenodd"/><path stroke="#000000" stroke-width="1.0" stroke-linejoin="round" stroke-linecap="butt" d="m59.54462 106.979004l0 0c0 -11.750183 9.525402 -21.275589 21.275593 -21.275589l0 0c5.6426315 0 11.054161 2.2415237 15.044113 6.231476c3.9899445 3.9899445 6.231476 9.401474 6.231476 15.044113l0 0c0 11.750183 -9.525406 21.275589 -21.275589 21.275589l0 0c-11.750191 0 -21.275593 -9.525406 -21.275593 -21.275589z" fill-rule="evenodd"/><path fill="#000000" d="m76.88547 113.899l0 -8.546875l-1.5625 0l0 -1.3125l1.5625 0l0 -1.015625q0 -1.578125 0.84375 -2.4375q0.84375 -0.875 2.390625 -0.875q0.59375 0 1.15625 0.15625l-0.09375 1.375q-0.421875 -0.09375 -0.90625 -0.09375q-0.8125 0 -1.265625 0.484375q-0.4375 0.484375 -0.4375 1.375l0 1.03125l2.09375 0l0 1.3125l-2.09375 0l0 8.546875l-1.6875 0z" fill-rule="nonzero"/><path fill="#999999" d="m16.993439 212.7664l0 0c0 -11.750183 9.525406 -21.275589 21.275589 -21.275589l0 0c5.642639 0 11.054169 2.2415314 15.044117 6.231476c3.9899445 3.9899445 6.231476 9.401474 6.231476 15.044113l0 0c0 11.750183 -9.525406 21.275589 -21.275593 21.275589l0 0c-11.750183 0 -21.275589 -9.525406 -21.275589 -21.275589z" fill-rule="evenodd"/><path stroke="#000000" stroke-width="1.0" stroke-linejoin="round" stroke-linecap="butt" d="m16.993439 212.7664l0 0c0 -11.750183 9.525406 -21.275589 21.275589 -21.275589l0 0c5.642639 0 11.054169 2.2415314 15.044117 6.231476c3.9899445 3.9899445 6.231476 9.401474 6.231476 15.044113l0 0c0 11.750183 -9.525406 21.275589 -21.275593 21.275589l0 0c-11.750183 0 -21.275589 -9.525406 -21.275589 -21.275589z" fill-rule="evenodd"/><path fill="#000000" d="m39.58429 219.6864q-0.140625 -0.296875 -0.234375 -1.03125q-1.171875 1.21875 -2.8125 1.21875q-1.453125 0 -2.390625 -0.828125q-0.921875 -0.828125 -0.921875 -2.09375q0 -1.53125 1.15625 -2.375q1.171875 -0.859375 3.296875 -0.859375l1.640625 0l0 -0.78125q0 -0.890625 -0.53125 -1.40625q-0.515625 -0.53125 -1.546875 -0.53125q-0.90625 0 -1.515625 0.46875q-0.609375 0.453125 -0.609375 1.09375l-1.703125 0q0 -0.734375 0.515625 -1.421875q0.53125 -0.6875 1.421875 -1.078125q0.90625 -0.40625 1.984375 -0.40625q1.703125 0 2.671875 0.859375q0.96875 0.84375 1.0 2.328125l0 4.53125q0 1.359375 0.34375 2.171875l0 0.140625l-1.765625 0zm-2.796875 -1.28125q0.796875 0 1.5 -0.40625q0.71875 -0.421875 1.03125 -1.078125l0 -2.015625l-1.3125 0q-3.109375 0 -3.109375 1.8125q0 0.796875 0.53125 1.25q0.53125 0.4375 1.359375 0.4375z" fill-rule="nonzero"/><path fill="#999999" d="m211.73097 106.979004l0 0c0 -11.750183 9.525406 -21.275589 21.275589 -21.275589l0 0c5.642639 0 11.054169 2.2415237 15.044113 6.231476c3.9899445 3.9899445 6.231476 9.401474 6.231476 15.044113l0 0c0 11.750183 -9.525406 21.275589 -21.275589 21.275589l0 0c-11.750183 0 -21.275589 -9.525406 -21.275589 -21.275589z" fill-rule="evenodd"/><path stroke="#000000" stroke-width="1.0" stroke-linejoin="round" stroke-linecap="butt" d="m211.73097 106.979004l0 0c0 -11.750183 9.525406 -21.275589 21.275589 -21.275589l0 0c5.642639 0 11.054169 2.2415237 15.044113 6.231476c3.9899445 3.9899445 6.231476 9.401474 6.231476 15.044113l0 0c0 11.750183 -9.525406 21.275589 -21.275589 21.275589l0 0c-11.750183 0 -21.275589 -9.525406 -21.275589 -21.275589z" fill-rule="evenodd"/><path fill="#000000" d="m227.83745 108.88338q0 -2.296875 1.0625 -3.65625q1.0625 -1.359375 2.828125 -1.359375q1.796875 0 2.8125 1.265625l0.078125 -1.09375l1.546875 0l0 9.625q0 1.90625 -1.140625 3.0q-1.125 1.109375 -3.046875 1.109375q-1.0625 0 -2.09375 -0.453125q-1.015625 -0.453125 -1.546875 -1.25l0.875 -1.0q1.078125 1.328125 2.65625 1.328125q1.21875 0 1.90625 -0.6875q0.6875 -0.6875 0.6875 -1.953125l0 -0.84375q-1.0 1.171875 -2.75 1.171875q-1.734375 0 -2.8125 -1.390625q-1.0625 -1.40625 -1.0625 -3.8125zm1.6875 0.203125q0 1.65625 0.6875 2.609375q0.6875 0.953125 1.921875 0.953125q1.59375 0 2.328125 -1.453125l0 -4.5q-0.765625 -1.40625 -2.3125 -1.40625q-1.234375 0 -1.9375 0.953125q-0.6875 0.953125 -0.6875 2.84375z" fill-rule="nonzero"/><path fill="#999999" d="m92.65223 212.7664l0 0c0 -11.750183 9.525406 -21.275589 21.275589 -21.275589l0 0c5.642639 0 11.054169 2.2415314 15.044121 6.231476c3.9899445 3.9899445 6.231476 9.401474 6.231476 15.044113l0 0c0 11.750183 -9.525406 21.275589 -21.275597 21.275589l0 0c-11.750183 0 -21.275589 -9.525406 -21.275589 -21.275589z" fill-rule="evenodd"/><path stroke="#000000" stroke-width="1.0" stroke-linejoin="round" stroke-linecap="butt" d="m92.65223 212.7664l0 0c0 -11.750183 9.525406 -21.275589 21.275589 -21.275589l0 0c5.642639 0 11.054169 2.2415314 15.044121 6.231476c3.9899445 3.9899445 6.231476 9.401474 6.231476 15.044113l0 0c0 11.750183 -9.525406 21.275589 -21.275597 21.275589l0 0c-11.750183 0 -21.275589 -9.525406 -21.275589 -21.275589z" fill-rule="evenodd"/><path fill="#000000" d="m117.508705 214.8739q0 2.25 -1.046875 3.625q-1.03125 1.375 -2.78125 1.375q-1.875 0 -2.890625 -1.328125l-0.078125 1.140625l-1.546875 0l0 -14.0l1.671875 0l0 5.234375q1.03125 -1.265625 2.8125 -1.265625q1.796875 0 2.828125 1.359375q1.03125 1.34375 1.03125 3.703125l0 0.15625zm-1.6875 -0.203125q0 -1.71875 -0.671875 -2.65625q-0.65625 -0.9375 -1.90625 -0.9375q-1.671875 0 -2.40625 1.546875l0 4.265625q0.78125 1.546875 2.421875 1.546875q1.21875 0 1.890625 -0.9375q0.671875 -0.9375 0.671875 -2.828125z" fill-rule="nonzero"/><path fill="#999999" d="m211.73097 212.7664l0 0c0 -11.750183 9.525406 -21.275589 21.275589 -21.275589l0 0c5.642639 0 11.054169 2.2415314 15.044113 6.231476c3.9899445 3.9899445 6.231476 9.401474 6.231476 15.044113l0 0c0 11.750183 -9.525406 21.275589 -21.275589 21.275589l0 0c-11.750183 0 -21.275589 -9.525406 -21.275589 -21.275589z" fill-rule="evenodd"/><path stroke="#000000" stroke-width="1.0" stroke-linejoin="round" stroke-linecap="butt" d="m211.73097 212.7664l0 0c0 -11.750183 9.525406 -21.275589 21.275589 -21.275589l0 0c5.642639 0 11.054169 2.2415314 15.044113 6.231476c3.9899445 3.9899445 6.231476 9.401474 6.231476 15.044113l0 0c0 11.750183 -9.525406 21.275589 -21.275589 21.275589l0 0c-11.750183 0 -21.275589 -9.525406 -21.275589 -21.275589z" fill-rule="evenodd"/><path fill="#000000" d="m232.82182 211.4989l3.1875 -5.078125l2.0625 0l-4.1875 6.578125l4.28125 6.6875l-2.078125 0l-3.265625 -5.171875l-3.265625 5.171875l-2.078125 0l4.296875 -6.6875l-4.1875 -6.578125l2.046875 0l3.1875 5.078125z" fill-rule="nonzero"/><path fill="#000000" fill-opacity="0.0" d="m141.43489 45.69766l-60.62992 39.999996" fill-rule="evenodd"/><path stroke="#000000" stroke-width="1.0" stroke-linejoin="round" stroke-linecap="butt" d="m141.43489 45.697655l-55.621674 36.695854" fill-rule="evenodd"/><path fill="#000000" stroke="#000000" stroke-width="1.0" stroke-linecap="butt" d="m84.903625 81.01479l-2.878395 3.8778076l4.697586 -1.1203766z" fill-rule="evenodd"/><path fill="#000000" fill-opacity="0.0" d="m171.52312 45.69766l61.480316 39.999996" fill-rule="evenodd"/><path stroke="#000000" stroke-width="1.0" stroke-linejoin="round" stroke-linecap="butt" d="m171.52312 45.697655l56.451065 36.727898" fill-rule="evenodd"/><path fill="#000000" stroke="#000000" stroke-width="1.0" stroke-linecap="butt" d="m227.07341 83.81004l4.7046356 1.0903625l-2.9030914 -3.859352z" fill-rule="evenodd"/><path fill="#000000" fill-opacity="0.0" d="m65.76509 122.0105l-27.496063 69.480316" fill-rule="evenodd"/><path stroke="#000000" stroke-width="1.0" stroke-linejoin="round" stroke-linecap="butt" d="m65.76509 122.0105l-25.288227 63.90129" fill-rule="evenodd"/><path fill="#000000" stroke="#000000" stroke-width="1.0" stroke-linecap="butt" d="m38.94102 185.304l-0.13405228 4.827484l3.205738 -3.6118927z" fill-rule="evenodd"/><path fill="#000000" fill-opacity="0.0" d="m80.82021 128.2546l33.102356 63.244095" fill-rule="evenodd"/><path stroke="#000000" stroke-width="1.0" stroke-linejoin="round" stroke-linecap="butt" d="m80.82021 128.2546l30.32 57.928238" fill-rule="evenodd"/><path fill="#000000" stroke="#000000" stroke-width="1.0" stroke-linecap="butt" d="m109.67681 186.94878l3.5678406 3.2546997l-0.641037 -4.786606z" fill-rule="evenodd"/><path fill="#000000" fill-opacity="0.0" d="m95.86433 122.02312l122.11024 75.68504" fill-rule="evenodd"/><path stroke="#000000" stroke-width="1.0" stroke-linejoin="round" stroke-linecap="butt" d="m95.86433 122.02312l117.01037 72.52411" fill-rule="evenodd"/><path fill="#000000" stroke="#000000" stroke-width="1.0" stroke-linecap="butt" d="m212.00453 195.95114l4.7274475 0.9868469l-2.9871063 -3.7947083z" fill-rule="evenodd"/><path fill="#000000" fill-opacity="0.0" d="m233.00656 128.2546l0 63.244095" fill-rule="evenodd"/><path stroke="#000000" stroke-width="1.0" stroke-linejoin="round" stroke-linecap="butt" d="m233.00656 128.2546l0 57.244095" fill-rule="evenodd"/><path fill="#000000" stroke="#000000" stroke-width="1.0" stroke-linecap="butt" d="m231.35483 185.49869l1.6517334 4.538101l1.6517334 -4.538101z" fill-rule="evenodd"/><path fill="#000000" fill-opacity="0.0" d="m177.7546 30.653543l109.6378 56.125984" fill-rule="evenodd"/><path stroke="#000000" stroke-width="1.0" stroke-linejoin="round" stroke-linecap="butt" stroke-dasharray="4.0,3.0" d="m177.7546 30.653543l104.29695 53.39189" fill-rule="evenodd"/><path fill="#000000" stroke="#000000" stroke-width="1.0" stroke-linecap="butt" d="m281.29886 85.51571l4.7922363 0.59765625l-3.2868958 -3.5382156z" fill-rule="evenodd"/><path fill="#d9d9d9" d="m273.27954 108.055115l0 0c0 -11.750183 9.525391 -21.275589 21.275574 -21.275589l0 0c5.642639 0 11.054169 2.2415314 15.044128 6.231476c3.9899292 3.989952 6.231476 9.401482 6.231476 15.044113l0 0c0 11.750191 -9.525421 21.275589 -21.275604 21.275589l0 0c-11.750183 0 -21.275574 -9.525398 -21.275574 -21.275589z" fill-rule="evenodd"/><path stroke="#000000" stroke-width="1.0" stroke-linejoin="round" stroke-linecap="butt" stroke-dasharray="4.0,3.0" d="m273.27954 108.055115l0 0c0 -11.750183 9.525391 -21.275589 21.275574 -21.275589l0 0c5.642639 0 11.054169 2.2415314 15.044128 6.231476c3.9899292 3.989952 6.231476 9.401482 6.231476 15.044113l0 0c0 11.750191 -9.525421 21.275589 -21.275604 21.275589l0 0c-11.750183 0 -21.275574 -9.525398 -21.275574 -21.275589z" fill-rule="evenodd"/><path fill="#000000" d="m289.13602 109.27699q0 -1.640625 0.75 -2.609375q0.765625 -0.984375 2.03125 -0.984375q1.28125 0 2.015625 0.90625l0.046875 -0.78125l1.109375 0l0 6.875q0 1.375 -0.8125 2.15625q-0.8125 0.78125 -2.1875 0.78125q-0.75 0 -1.484375 -0.328125q-0.734375 -0.3125 -1.109375 -0.875l0.625 -0.734375q0.765625 0.96875 1.890625 0.96875q0.875 0 1.359375 -0.5q0.5 -0.5 0.5 -1.390625l0 -0.609375q-0.71875 0.828125 -1.96875 0.828125q-1.234375 0 -2.0 -0.984375q-0.765625 -1.0 -0.765625 -2.71875zm1.203125 0.140625q0 1.1875 0.484375 1.875q0.5 0.671875 1.375 0.671875q1.140625 0 1.671875 -1.03125l0 -3.21875q-0.546875 -1.015625 -1.65625 -1.015625q-0.875 0 -1.375 0.6875q-0.5 0.6875 -0.5 2.03125zm6.649414 -3.375l-0.6875 -0.46875q0.609375 -0.84375 0.625 -1.78125l0 -0.9375l1.1875 0l0 0.84375q0 0.65625 -0.328125 1.3125q-0.3125 0.640625 -0.796875 1.03125z" fill-rule="nonzero"/><path fill="#000000" fill-opacity="0.0" d="m242.80971 128.2546l38.99214 62.078735" fill-rule="evenodd"/><path stroke="#000000" stroke-width="1.0" stroke-linejoin="round" stroke-linecap="butt" stroke-dasharray="4.0,3.0" d="m242.80971 128.2546l35.800797 56.997864" fill-rule="evenodd"/><path fill="#000000" stroke="#000000" stroke-width="1.0" stroke-linecap="butt" d="m277.2118 186.131l3.8124695 2.9643707l-1.0150452 -4.721451z" fill-rule="evenodd"/><path fill="#d9d9d9" d="m265.19946 212.76115l0 0c0 -12.750381 10.336243 -23.086609 23.08664 -23.086609l0 0c6.122925 0 11.995117 2.4323273 16.324677 6.761902c4.32959 4.32959 6.7619324 10.201752 6.7619324 16.324707l0 0c0 12.750381 -10.336243 23.086609 -23.086609 23.086609l0 0c-12.750397 0 -23.08664 -10.336227 -23.08664 -23.086609z" fill-rule="evenodd"/><path stroke="#000000" stroke-width="1.0" stroke-linejoin="round" stroke-linecap="butt" stroke-dasharray="4.0,3.0" d="m265.19946 212.76115l0 0c0 -12.750381 10.336243 -23.086609 23.08664 -23.086609l0 0c6.122925 0 11.995117 2.4323273 16.324677 6.761902c4.32959 4.32959 6.7619324 10.201752 6.7619324 16.324707l0 0c0 12.750381 -10.336243 23.086609 -23.086609 23.086609l0 0c-12.750397 0 -23.08664 -10.336227 -23.08664 -23.086609z" fill-rule="evenodd"/><path fill="#000000" d="m285.1489 211.7174l2.28125 -3.625l1.46875 0l-3.0 4.6875l3.0625 4.78125l-1.484375 0l-2.328125 -3.703125l-2.34375 3.703125l-1.46875 0l3.0625 -4.78125l-3.0 -4.6875l1.46875 0l2.28125 3.625zm5.1686096 -0.96875l-0.6875 -0.46875q0.609375 -0.84375 0.625 -1.78125l0 -0.9375l1.1875 0l0 0.84375q0 0.65625 -0.328125 1.3125q-0.3125 0.640625 -0.796875 1.03125z" fill-rule="nonzero"/><path fill="#000000" fill-opacity="0.0" d="m300.87796 128.25984l38.992126 62.078735" fill-rule="evenodd"/><path stroke="#000000" stroke-width="1.0" stroke-linejoin="round" stroke-linecap="butt" stroke-dasharray="1.0,3.0" d="m300.87796 128.25984l35.80078 56.997864" fill-rule="evenodd"/><path fill="#000000" stroke="#000000" stroke-width="1.0" stroke-linecap="butt" d="m335.28003 186.13625l3.8124695 2.964386l-1.0150452 -4.721466z" fill-rule="evenodd"/><path fill="#ffffff" d="m320.32285 215.31496l0 0c0 -12.750381 10.336212 -23.086609 23.086609 -23.086609l0 0c6.1229553 0 11.995117 2.4323273 16.324707 6.761917c4.3295593 4.3295746 6.761902 10.201752 6.761902 16.324692l0 0c0 12.750381 -10.336243 23.086624 -23.086609 23.086624l0 0c-12.750397 0 -23.086609 -10.336243 -23.086609 -23.086624z" fill-rule="evenodd"/><path stroke="#000000" stroke-width="1.0" stroke-linejoin="round" stroke-linecap="butt" stroke-dasharray="1.0,3.0" d="m320.32285 215.31496l0 0c0 -12.750381 10.336212 -23.086609 23.086609 -23.086609l0 0c6.1229553 0 11.995117 2.4323273 16.324707 6.761917c4.3295593 4.3295746 6.761902 10.201752 6.761902 16.324692l0 0c0 12.750381 -10.336243 23.086624 -23.086609 23.086624l0 0c-12.750397 0 -23.086609 -10.336243 -23.086609 -23.086624z" fill-rule="evenodd"/><path fill="#000000" d="m340.27225 214.27121l2.28125 -3.625l1.46875 0l-3.0 4.6875l3.0625 4.78125l-1.484375 0l-2.328125 -3.703125l-2.34375 3.703125l-1.46875 0l3.0625 -4.78125l-3.0 -4.6875l1.46875 0l2.28125 3.625zm5.1686096 -0.96875l-0.6875 -0.46875q0.609375 -0.84375 0.625 -1.78125l0 -0.9375l1.1875 0l0 0.84375q0 0.65625 -0.328125 1.3125q-0.3125 0.640625 -0.796875 1.03125zm1.9651184 0l-0.6875 -0.46875q0.609375 -0.84375 0.625 -1.78125l0 -0.9375l1.1875 0l0 0.84375q0 0.65625 -0.328125 1.3125q-0.3125 0.640625 -0.796875 1.03125z" fill-rule="nonzero"/></g></svg>