<svg version="1.1" viewBox="0.0 0.0 312.95800524934384 310.51443569553805" fill="none" stroke="none" stroke-linecap="square" stroke-miterlimit="10" xmlns:xlink="http://www.w3.org/1999/xlink" xmlns="http://www.w3.org/2000/svg"><clipPath id="p.0"><path d="m0 0l312.958 0l0 310.51443l-312.958 0l0 -310.51443z" clip-rule="nonzero"/></clipPath><g clip-path="url(#p.0)"><path fill="#000000" fill-opacity="0.0" d="m0 0l312.958 0l0 310.51443l-312.958 0z" fill-rule="evenodd"/><path fill="#cfe2f3" d="m67.60292 21.146011l0 0c0 -3.537012 2.8673172 -6.4043283 6.4043274 -6.4043283l162.68741 0c1.6985321 0 3.3274994 0.67473984 4.528549 1.8757849c1.2010345 1.2010441 1.8757782 2.8300095 1.8757782 4.5285435l0 25.616543c0 3.5370102 -2.8673096 6.4043274 -6.4043274 6.4043274l-162.68741 0c-3.5370102 0 -6.4043274 -2.8673172 -6.4043274 -6.4043274z" fill-rule="evenodd"/><path stroke="#000000" stroke-width="1.0" stroke-linejoin="round" stroke-linecap="butt" d="m67.60292 21.146011l0 0c0 -3.537012 2.8673172 -6.4043283 6.4043274 -6.4043283l162.68741 0c1.6985321 0 3.3274994 0.67473984 4.528549 1.8757849c1.2010345 1.2010441 1.8757782 2.8300095 1.8757782 4.5285435l0 25.616543c0 3.5370102 -2.8673096 6.4043274 -6.4043274 6.4043274l-162.68741 0c-3.5370102 0 -6.4043274 -2.8673172 -6.4043274 -6.4043274z" fill-rule="evenodd"/><path fill="#000000" d="m117.62515 36.671154q-0.25 2.09375 -1.5625 3.25q-1.296875 1.140625 -3.46875 1.140625q-2.34375 0 -3.765625 -1.6875q-1.421875 -1.6875 -1.421875 -4.515625l0 -1.265625q0 -1.859375 0.65625 -3.25q0.671875 -1.40625 1.875 -2.15625q1.21875 -0.765625 2.8125 -0.765625q2.109375 0 3.390625 1.1875q1.28125 1.171875 1.484375 3.265625l-1.765625 0q-0.21875 -1.578125 -0.984375 -2.28125q-0.765625 -0.71875 -2.125 -0.71875q-1.671875 0 -2.625 1.234375q-0.953125 1.234375 -0.953125 3.53125l0 1.28125q0 2.15625 0.890625 3.4375q0.90625 1.265625 2.53125 1.265625q1.453125 0 2.234375 -0.65625q0.78125 -0.65625 1.03125 -2.296875l1.765625 0zm3.9554596 4.203125l-1.6875 0l0 -14.0l1.6875 0l0 14.0zm8.77742 0q-0.140625 -0.296875 -0.234375 -1.03125q-1.171875 1.21875 -2.8125 1.21875q-1.453125 0 -2.390625 -0.828125q-0.921875 -0.828125 -0.921875 -2.09375q0 -1.53125 1.15625 -2.375q1.171875 -0.859375 3.296875 -0.859375l1.640625 0l0 -0.78125q0 -0.890625 -0.53125 -1.40625q-0.515625 -0.53125 -1.546875 -0.53125q-0.90625 0 -1.515625 0.46875q-0.609375 0.453125 -0.609375 1.09375l-1.703125 0q0 -0.734375 0.515625 -1.421875q0.53125 -0.6875 1.421875 -1.078125q0.90625 -0.40625 1.984375 -0.40625q1.703125 0 2.671875 0.859375q0.96875 0.84375 1.0 2.328125l0 4.53125q0 1.359375 0.34375 2.171875l0 0.140625l-1.765625 0zm-2.796875 -1.28125q0.796875 0 1.5 -0.40625q0.71875 -0.421875 1.03125 -1.078125l0 -2.015625l-1.3125 0q-3.109375 0 -3.109375 1.8125q0 0.796875 0.53125 1.25q0.53125 0.4375 1.359375 0.4375zm12.944855 0.3125q-0.984375 1.15625 -2.890625 1.15625q-1.578125 0 -2.40625 -0.921875q-0.8125 -0.921875 -0.828125 -2.703125l0 -6.421875l1.6875 0l0 6.375q0 2.234375 1.828125 2.234375q1.921875 0 2.5625 -1.4375l0 -7.171875l1.6875 0l0 9.859375l-1.609375 0l-0.03125 -0.96875zm9.940872 -1.640625q0 -0.6875 -0.515625 -1.0625q-0.515625 -0.375 -1.796875 -0.640625q-1.28125 -0.28125 -2.03125 -0.65625q-0.75 -0.390625 -1.109375 -0.921875q-0.359375 -0.53125 -0.359375 -1.265625q0 -1.203125 1.015625 -2.03125q1.03125 -0.84375 2.625 -0.84375q1.671875 0 2.71875 0.859375q1.046875 0.859375 1.046875 2.21875l-1.6875 0q0 -0.703125 -0.59375 -1.203125q-0.59375 -0.5 -1.484375 -0.5q-0.921875 0 -1.4375 0.40625q-0.515625 0.390625 -0.515625 1.046875q0 0.609375 0.484375 0.921875q0.484375 0.3125 1.734375 0.59375q1.265625 0.28125 2.046875 0.671875q0.78125 0.390625 1.15625 0.9375q0.390625 0.546875 0.390625 1.34375q0 1.328125 -1.0625 2.125q-1.046875 0.796875 -2.734375 0.796875q-1.1875 0 -2.109375 -0.421875q-0.90625 -0.421875 -1.421875 -1.171875q-0.515625 -0.75 -0.515625 -1.625l1.6875 0q0.046875 0.84375 0.671875 1.34375q0.640625 0.5 1.6875 0.5q0.953125 0 1.53125 -0.390625q0.578125 -0.390625 0.578125 -1.03125zm7.963379 2.796875q-2.0 0 -3.265625 -1.3125q-1.25 -1.328125 -1.25 -3.53125l0 -0.3125q0 -1.46875 0.5625 -2.609375q0.5625 -1.15625 1.5625 -1.796875q1.015625 -0.65625 2.1875 -0.65625q1.921875 0 2.984375 1.265625q1.0625 1.265625 1.0625 3.625l0 0.6875l-6.671875 0q0.03125 1.46875 0.84375 2.375q0.828125 0.890625 2.078125 0.890625q0.890625 0 1.515625 -0.359375q0.625 -0.375 1.078125 -0.96875l1.03125 0.796875q-1.234375 1.90625 -3.71875 1.90625zm-0.203125 -8.84375q-1.015625 0 -1.71875 0.75q-0.6875 0.734375 -0.84375 2.078125l4.9375 0l0 -0.125q-0.078125 -1.28125 -0.703125 -1.984375q-0.609375 -0.71875 -1.671875 -0.71875zm10.892944 8.65625l0 -13.265625l3.734375 0q1.734375 0 3.0625 0.765625q1.328125 0.765625 2.046875 2.1875q0.734375 1.40625 0.734375 3.234375l0 0.84375q0 1.875 -0.71875 3.296875q-0.71875 1.40625 -2.0625 2.171875q-1.34375 0.75 -3.140625 0.765625l-3.65625 0zm1.734375 -11.828125l0 10.390625l1.84375 0q2.03125 0 3.15625 -1.25q1.125 -1.25 1.125 -3.578125l0 -0.78125q0 -2.25 -1.0625 -3.5q-1.0625 -1.265625 -3.015625 -1.28125l-2.046875 0zm17.620773 8.359375l-5.546875 0l-1.25 3.46875l-1.8125 0l5.0625 -13.265625l1.53125 0l5.078125 13.265625l-1.796875 0l-1.265625 -3.46875zm-5.03125 -1.4375l4.515625 0l-2.265625 -6.203125l-2.25 6.203125zm19.570023 3.171875q-0.671875 0.953125 -1.875 1.4375q-1.203125 0.484375 -2.8125 0.484375q-1.625 0 -2.890625 -0.765625q-1.25 -0.765625 -1.9375 -2.15625q-0.6875 -1.40625 -0.703125 -3.265625l0 -1.15625q0 -2.984375 1.390625 -4.640625q1.40625 -1.65625 3.9375 -1.65625q2.078125 0 3.34375 1.0625q1.265625 1.0625 1.546875 3.015625l-1.75 0q-0.484375 -2.625 -3.125 -2.625q-1.765625 0 -2.671875 1.234375q-0.90625 1.234375 -0.90625 3.5625l0 1.09375q0 2.234375 1.015625 3.546875q1.015625 1.3125 2.765625 1.3125q0.984375 0 1.71875 -0.21875q0.734375 -0.21875 1.21875 -0.734375l0 -2.984375l-3.078125 0l0 -1.421875l4.8125 0l0 4.875z" fill-rule="nonzero"/><path fill="#000000" fill-opacity="0.0" d="m155.35095 53.16688l0 74.92912" fill-rule="evenodd"/><path stroke="#000000" stroke-width="1.0" stroke-linejoin="round" stroke-linecap="butt" d="m155.35095 53.16688l0 68.92914" fill-rule="evenodd"/><path fill="#000000" stroke="#000000" stroke-width="1.0" stroke-linecap="butt" d="m153.69922 122.096016l1.6517334 4.538101l1.6517334 -4.538101z" fill-rule="evenodd"/><path fill="#cfe2f3" d="m3.4514437 140.3598l0 0c0 -6.3086395 5.1141615 -11.422791 11.4228 -11.422791l282.38275 0c3.0295105 0 5.9349365 1.2034607 8.077148 3.3456573c2.1421814 2.1421967 3.345642 5.0476227 3.345642 8.077133l0 45.689835c0 6.3086395 -5.1141663 11.422806 -11.422791 11.422806l-282.38275 0c-6.3086386 0 -11.4228 -5.1141663 -11.4228 -11.422806z" fill-rule="evenodd"/><path stroke="#000000" stroke-width="1.0" stroke-linejoin="round" stroke-linecap="butt" d="m3.4514437 140.3598l0 0c0 -6.3086395 5.1141615 -11.422791 11.4228 -11.422791l282.38275 0c3.0295105 0 5.9349365 1.2034607 8.077148 3.3456573c2.1421814 2.1421967 3.345642 5.0476227 3.345642 8.077133l0 45.689835c0 6.3086395 -5.1141663 11.422806 -11.422791 11.422806l-282.38275 0c-6.3086386 0 -11.4228 -5.1141663 -11.4228 -11.422806z" fill-rule="evenodd"/><path fill="#000000" d="m47.70882 146.39035q-0.671875 0.953125 -1.875 1.4375q-1.203125 0.484375 -2.8125 0.484375q-1.625 0 -2.890625 -0.765625q-1.25 -0.765625 -1.9375 -2.15625q-0.6875 -1.40625 -0.703125 -3.265625l0 -1.15625q0 -2.984375 1.390625 -4.640625q1.40625 -1.65625 3.9375 -1.65625q2.078125 0 3.34375 1.0625q1.265625 1.0625 1.546875 3.015625l-1.75 0q-0.484375 -2.625 -3.125 -2.625q-1.765625 0 -2.671875 1.234375q-0.90625 1.234375 -0.90625 3.5625l0 1.09375q0 2.234375 1.015625 3.546875q1.015625 1.3125 2.765625 1.3125q0.984375 0 1.71875 -0.21875q0.734375 -0.21875 1.21875 -0.734375l0 -2.984375l-3.078125 0l0 -1.421875l4.8125 0l0 4.875zm7.4264984 -6.609375q-0.390625 -0.0625 -0.84375 -0.0625q-1.65625 0 -2.25 1.40625l0 7.0l-1.671875 0l0 -9.859375l1.640625 0l0.015625 1.140625q0.828125 -1.3125 2.359375 -1.3125q0.484375 0 0.75 0.125l0 1.5625zm7.260803 8.34375q-0.140625 -0.296875 -0.234375 -1.03125q-1.171875 1.21875 -2.8125 1.21875q-1.453125 0 -2.390625 -0.828125q-0.921875 -0.828125 -0.921875 -2.09375q0 -1.53125 1.15625 -2.375q1.171875 -0.859375 3.296875 -0.859375l1.640625 0l0 -0.78125q0 -0.890625 -0.53125 -1.40625q-0.515625 -0.53125 -1.546875 -0.53125q-0.90625 0 -1.515625 0.46875q-0.609375 0.453125 -0.609375 1.09375l-1.703125 0q0 -0.734375 0.515625 -1.421875q0.53125 -0.6875 1.421875 -1.078125q0.90625 -0.40625 1.984375 -0.40625q1.703125 0 2.671875 0.859375q0.96875 0.84375 1.0 2.328125l0 4.53125q0 1.359375 0.3437462 2.171875l0 0.140625l-1.7656212 0zm-2.796875 -1.28125q0.796875 0 1.5 -0.40625q0.71875 -0.421875 1.03125 -1.078125l0 -2.015625l-1.3125 0q-3.109375 0 -3.109375 1.8125q0 0.796875 0.53125 1.25q0.53125 0.4375 1.359375 0.4375zm15.179226 -3.53125q0 2.25 -1.03125 3.625q-1.015625 1.375 -2.78125 1.375q-1.796875 0 -2.828125 -1.140625l0 4.75l-1.671875 0l0 -13.65625l1.53125 0l0.078125 1.09375q1.03125 -1.265625 2.859375 -1.265625q1.78125 0 2.8125 1.34375q1.03125 1.328125 1.03125 3.71875l0 0.15625zm-1.671875 -0.203125q0 -1.65625 -0.71875 -2.625q-0.703125 -0.96875 -1.953125 -0.96875q-1.53125 0 -2.296875 1.359375l0 4.703125q0.765625 1.359375 2.328125 1.359375q1.203125 0 1.921875 -0.953125q0.71875 -0.96875 0.71875 -2.875zm5.498062 -3.640625q1.125 -1.375 2.921875 -1.375q3.125 0 3.15625 3.515625l0 6.515625l-1.6875 0l0 -6.515625q-0.015625 -1.078125 -0.5 -1.578125q-0.46875 -0.515625 -1.484375 -0.515625q-0.8125 0 -1.4375 0.4375q-0.609375 0.4375 -0.96875 1.15625l0 7.015625l-1.671875 0l0 -14.0l1.671875 0l0 5.34375zm23.675278 8.65625l-1.765625 0l-6.671875 -10.21875l0 10.21875l-1.75 0l0 -13.265625l1.75 0l6.703125 10.265625l0 -10.265625l1.734375 0l0 13.265625zm6.9248657 0.1875q-2.0 0 -3.265625 -1.3125q-1.25 -1.328125 -1.25 -3.53125l0 -0.3125q0 -1.46875 0.5625 -2.609375q0.5625 -1.15625 1.5625 -1.796875q1.015625 -0.65625 2.1875 -0.65625q1.921875 0 2.984375 1.265625q1.0625 1.265625 1.0625 3.625l0 0.6875l-6.671875 0q0.03125 1.46875 0.84375 2.375q0.828125 0.890625 2.078125 0.890625q0.890625 0 1.515625 -0.359375q0.625 -0.375 1.078125 -0.96875l1.03125 0.796875q-1.234375 1.90625 -3.71875 1.90625zm-0.203125 -8.84375q-1.015625 0 -1.71875 0.75q-0.6875 0.734375 -0.84375 2.078125l4.9375 0l0 -0.125q-0.078125 -1.28125 -0.703125 -1.984375q-0.609375 -0.71875 -1.671875 -0.71875zm12.086929 7.6875q-0.984375 1.15625 -2.890625 1.15625q-1.578125 0 -2.40625 -0.921875q-0.8125 -0.921875 -0.828125 -2.703125l0 -6.421875l1.6875 0l0 6.375q0 2.234375 1.828125 2.234375q1.921875 0 2.5625 -1.4375l0 -7.171875l1.6875 0l0 9.859375l-1.609375 0l-0.03125 -0.96875zm8.972122 -7.375q-0.390625 -0.0625 -0.84375 -0.0625q-1.65625 0 -2.25 1.40625l0 7.0l-1.671875 0l0 -9.859375l1.640625 0l0.015625 1.140625q0.828125 -1.3125 2.359375 -1.3125q0.484375 0 0.75 0.125l0 1.5625zm7.2608185 8.34375q-0.140625 -0.296875 -0.234375 -1.03125q-1.171875 1.21875 -2.8125153 1.21875q-1.453125 0 -2.390625 -0.828125q-0.921875 -0.828125 -0.921875 -2.09375q0 -1.53125 1.15625 -2.375q1.171875 -0.859375 3.2968903 -0.859375l1.640625 0l0 -0.78125q0 -0.890625 -0.53125 -1.40625q-0.515625 -0.53125 -1.546875 -0.53125q-0.90626526 0 -1.5156403 0.46875q-0.609375 0.453125 -0.609375 1.09375l-1.703125 0q0 -0.734375 0.515625 -1.421875q0.53125 -0.6875 1.421875 -1.078125q0.90625 -0.40625 1.9843903 -0.40625q1.703125 0 2.671875 0.859375q0.96875 0.84375 1.0 2.328125l0 4.53125q0 1.359375 0.34375 2.171875l0 0.140625l-1.765625 0zm-2.7968903 -1.28125q0.79689026 0 1.5000153 -0.40625q0.71875 -0.421875 1.03125 -1.078125l0 -2.015625l-1.3125 0q-3.1093903 0 -3.1093903 1.8125q0 0.796875 0.53125 1.25q0.53125 0.4375 1.359375 0.4375zm8.69487 1.28125l-1.6875 0l0 -14.0l1.6875 0l0 14.0zm17.770935 0l-1.765625 0l-6.671875 -10.21875l0 10.21875l-1.75 0l0 -13.265625l1.75 0l6.703125 10.265625l0 -10.265625l1.734375 0l0 13.265625zm6.9248657 0.1875q-2.0 0 -3.265625 -1.3125q-1.25 -1.328125 -1.25 -3.53125l0 -0.3125q0 -1.46875 0.5625 -2.609375q0.5625 -1.15625 1.5625 -1.796875q1.015625 -0.65625 2.1875 -0.65625q1.921875 0 2.984375 1.265625q1.0625 1.265625 1.0625 3.625l0 0.6875l-6.671875 0q0.03125 1.46875 0.84375 2.375q0.828125 0.890625 2.078125 0.890625q0.890625 0 1.515625 -0.359375q0.625 -0.375 1.078125 -0.96875l1.03125 0.796875q-1.234375 1.90625 -3.71875 1.90625zm-0.203125 -8.84375q-1.015625 0 -1.71875 0.75q-0.6875 0.734375 -0.84375 2.078125l4.9375 0l0 -0.125q-0.078125 -1.28125 -0.703125 -1.984375q-0.609375 -0.71875 -1.671875 -0.71875zm8.290039 -3.59375l0 2.390625l1.84375 0l0 1.3125l-1.84375 0l0 6.109375q0 0.59375 0.234375 0.890625q0.25 0.296875 0.84375 0.296875q0.296875 0 0.8125 -0.109375l0 1.359375q-0.671875 0.1875 -1.296875 0.1875q-1.125 0 -1.703125 -0.6875q-0.578125 -0.6875 -0.578125 -1.9375l0 -6.109375l-1.796875 0l0 -1.3125l1.796875 0l0 -2.390625l1.6875 0zm12.531769 9.921875l1.890625 -7.53125l1.6875 0l-2.859375 9.859375l-1.375 0l-2.390625 -7.46875l-2.328125 7.46875l-1.375 0l-2.859375 -9.859375l1.671875 0l1.953125 7.375l2.28125 -7.375l1.359375 0l2.34375 7.53125zm4.8476257 -2.6875q0 -1.453125 0.5625 -2.609375q0.578125 -1.15625 1.59375 -1.78125q1.015625 -0.625 2.3125 -0.625q2.015625 0 3.25 1.390625q1.25 1.390625 1.25 3.703125l0 0.125q0 1.4375 -0.546875 2.578125q-0.546875 1.140625 -1.578125 1.78125q-1.015625 0.640625 -2.359375 0.640625q-2.0 0 -3.25 -1.390625q-1.234375 -1.40625 -1.234375 -3.703125l0 -0.109375zm1.6875 0.203125q0 1.640625 0.765625 2.640625q0.765625 0.984375 2.03125 0.984375q1.296875 0 2.046875 -1.0q0.75 -1.015625 0.75 -2.828125q0 -1.625 -0.765625 -2.625q-0.765625 -1.015625 -2.046875 -1.015625q-1.25 0 -2.015625 1.0q-0.765625 0.984375 -0.765625 2.84375zm14.171143 -3.53125q-0.390625 -0.0625 -0.84375 -0.0625q-1.65625 0 -2.25 1.40625l0 7.0l-1.671875 0l0 -9.859375l1.640625 0l0.015625 1.140625q0.828125 -1.3125 2.359375 -1.3125q0.484375 0 0.75 0.125l0 1.5625zm4.2972717 3.78125l-1.0625 1.09375l0 3.46875l-1.6875 0l0 -14.0l1.6875 0l0 8.46875l0.90625 -1.078125l3.0625 -3.25l2.046875 0l-3.828125 4.125l4.28125 5.734375l-1.984375 0l-3.421875 -4.5625zm11.261658 -0.828125q0 -2.046875 0.546875 -3.9375q0.546875 -1.90625 1.640625 -3.453125q1.09375 -1.546875 2.265625 -2.1875l0.34375 1.109375q-1.328125 1.03125 -2.1875 3.125q-0.84375 2.09375 -0.921875 4.6875l-0.015625 0.765625q0 3.515625 1.296875 6.109375q0.765625 1.546875 1.828125 2.421875l-0.34375 1.03125q-1.203125 -0.671875 -2.3125 -2.265625q-2.140625 -3.09375 -2.140625 -7.40625zm16.486023 3.65625q-0.671875 0.953125 -1.875 1.4375q-1.203125 0.484375 -2.8125 0.484375q-1.625 0 -2.890625 -0.765625q-1.25 -0.765625 -1.9375 -2.15625q-0.6875 -1.40625 -0.703125 -3.265625l0 -1.15625q0 -2.984375 1.390625 -4.640625q1.40625 -1.65625 3.9375 -1.65625q2.078125 0 3.34375 1.0625q1.265625 1.0625 1.546875 3.015625l-1.75 0q-0.484375 -2.625 -3.125 -2.625q-1.765625 0 -2.671875 1.234375q-0.90625 1.234375 -0.90625 3.5625l0 1.09375q0 2.234375 1.015625 3.546875q1.015625 1.3125 2.765625 1.3125q0.984375 0 1.71875 -0.21875q0.734375 -0.21875 1.21875 -0.734375l0 -2.984375l-3.078125 0l0 -1.421875l4.8125 0l0 4.875zm13.114014 1.734375l-1.765625 0l-6.671875 -10.21875l0 10.21875l-1.75 0l0 -13.265625l1.75 0l6.703125 10.265625l0 -10.265625l1.734375 0l0 13.265625zm13.29985 0l-1.765625 0l-6.671875 -10.21875l0 10.21875l-1.75 0l0 -13.265625l1.75 0l6.703125 10.265625l0 -10.265625l1.734375 0l0 13.265625zm6.7373657 -5.296875q0 2.03125 -0.546875 3.90625q-0.53125 1.859375 -1.625 3.421875q-1.09375 1.578125 -2.296875 2.25l-0.359375 -1.03125q1.40625 -1.078125 2.25 -3.328125q0.859375 -2.265625 0.875 -5.03125l0 -0.296875q0 -1.90625 -0.40625 -3.546875q-0.390625 -1.65625 -1.109375 -2.953125q-0.71875 -1.296875 -1.609375 -2.03125l0.359375 -1.03125q1.203125 0.671875 2.28125 2.234375q1.09375 1.546875 1.640625 3.421875q0.546875 1.875 0.546875 4.015625z" fill-rule="nonzero"/><path fill="#000000" d="m39.786022 170.31223q-2.0 0 -3.265625 -1.3125q-1.25 -1.328125 -1.25 -3.53125l0 -0.3125q0 -1.46875 0.5625 -2.609375q0.5625 -1.15625 1.5625 -1.796875q1.015625 -0.65625 2.1875 -0.65625q1.921875 0 2.984375 1.265625q1.0625 1.265625 1.0625 3.625l0 0.6875l-6.671875 0q0.03125 1.46875 0.84375 2.375q0.828125 0.890625 2.078125 0.890625q0.890625 0 1.515625 -0.359375q0.625 -0.375 1.078125 -0.96875l1.03125 0.796875q-1.234375 1.90625 -3.71875 1.90625zm-0.203125 -8.84375q-1.015625 0 -1.71875 0.75q-0.6875 0.734375 -0.84375 2.078125l4.9375 0l0 -0.125q-0.078125 -1.28125 -0.703125 -1.984375q-0.609375 -0.71875 -1.671875 -0.71875zm7.5869293 -1.203125l0.046875 1.09375q1.078125 -1.265625 2.921875 -1.265625q2.0625 0 2.8125 1.578125q0.5 -0.71875 1.28125 -1.140625q0.796875 -0.4375 1.859375 -0.4375q3.25 0 3.296875 3.421875l0 6.609375l-1.671875 0l0 -6.5q0 -1.0625 -0.484375 -1.578125q-0.484375 -0.53125 -1.625 -0.53125q-0.9375 0 -1.5625 0.5625q-0.609375 0.5625 -0.71875 1.5l0 6.546875l-1.6875 0l0 -6.453125q0 -2.15625 -2.109375 -2.15625q-1.65625 0 -2.265625 1.40625l0 7.203125l-1.6875 0l0 -9.859375l1.59375 0zm23.117168 5.046875q0 2.25 -1.046875 3.625q-1.03125 1.375 -2.78125 1.375q-1.875 0 -2.8906212 -1.328125l-0.078125 1.140625l-1.546875 0l0 -14.0l1.671875 0l0 5.234375q1.0312462 -1.265625 2.8124962 -1.265625q1.796875 0 2.828125 1.359375q1.03125 1.34375 1.03125 3.703125l0 0.15625zm-1.6875 -0.203125q0 -1.71875 -0.671875 -2.65625q-0.65625 -0.9375 -1.90625 -0.9375q-1.671875 0 -2.4062462 1.546875l0 4.265625q0.7812462 1.546875 2.4218712 1.546875q1.21875 0 1.890625 -0.9375q0.671875 -0.9375 0.671875 -2.828125zm7.888687 5.203125q-2.0 0 -3.265625 -1.3125q-1.25 -1.328125 -1.25 -3.53125l0 -0.3125q0 -1.46875 0.5625 -2.609375q0.5625 -1.15625 1.5625 -1.796875q1.015625 -0.65625 2.1875 -0.65625q1.921875 0 2.984375 1.265625q1.0625 1.265625 1.0625 3.625l0 0.6875l-6.671875 0q0.03125 1.46875 0.84375 2.375q0.828125 0.890625 2.078125 0.890625q0.890625 0 1.515625 -0.359375q0.625 -0.375 1.078125 -0.96875l1.03125 0.796875q-1.234375 1.90625 -3.71875 1.90625zm-0.203125 -8.84375q-1.015625 0 -1.71875 0.75q-0.6875 0.734375 -0.84375 2.078125l4.9375 0l0 -0.125q-0.078125 -1.28125 -0.703125 -1.984375q-0.609375 -0.71875 -1.671875 -0.71875zm5.5869293 3.640625q0 -2.265625 1.078125 -3.640625q1.078125 -1.375 2.8125 -1.375q1.734375 0 2.75 1.171875l0 -5.140625l1.6875 0l0 14.0l-1.546875 0l-0.09375 -1.0625q-1.0 1.25 -2.8125 1.25q-1.703125 0 -2.796875 -1.40625q-1.078125 -1.40625 -1.078125 -3.65625l0 -0.140625zm1.6875 0.203125q0 1.671875 0.6875 2.625q0.703125 0.9375 1.921875 0.9375q1.609375 0 2.34375 -1.4375l0 -4.53125q-0.765625 -1.390625 -2.328125 -1.390625q-1.234375 0 -1.9375 0.953125q-0.6875 0.953125 -0.6875 2.84375zm14.990219 2.203125q0 -0.6875 -0.515625 -1.0625q-0.515625 -0.375 -1.796875 -0.640625q-1.28125 -0.28125 -2.03125 -0.65625q-0.75 -0.390625 -1.109375 -0.921875q-0.359375 -0.53125 -0.359375 -1.265625q0 -1.203125 1.015625 -2.03125q1.03125 -0.84375 2.625 -0.84375q1.671875 0 2.71875 0.859375q1.046875 0.859375 1.046875 2.21875l-1.6875 0q0 -0.703125 -0.59375 -1.203125q-0.59375 -0.5 -1.484375 -0.5q-0.921875 0 -1.4375 0.40625q-0.515625 0.390625 -0.515625 1.046875q0 0.609375 0.484375 0.921875q0.484375 0.3125 1.734375 0.59375q1.265625 0.28125 2.046875 0.671875q0.78125 0.390625 1.15625 0.9375q0.390625 0.546875 0.390625 1.34375q0 1.328125 -1.0625 2.125q-1.046875 0.796875 -2.734375 0.796875q-1.1875 0 -2.109375 -0.421875q-0.90625 -0.421875 -1.421875 -1.171875q-0.515625 -0.75 -0.515625 -1.625l1.6875 0q0.046875 0.84375 0.671875 1.34375q0.640625 0.5 1.6875 0.5q0.953125 0 1.53125 -0.390625q0.578125 -0.390625 0.578125 -1.03125zm8.769394 2.609375l0 -13.265625l3.734375 0q1.734375 0 3.0625 0.765625q1.328125 0.765625 2.046875 2.1875q0.734375 1.40625 0.734375 3.234375l0 0.84375q0 1.875 -0.71875 3.296875q-0.71875 1.40625 -2.0625 2.171875q-1.34375 0.75 -3.140625 0.765625l-3.65625 0zm1.734375 -11.828125l0 10.390625l1.84375 0q2.03125 0 3.15625 -1.25q1.125 -1.25 1.125 -3.578125l0 -0.78125q0 -2.25 -1.0625 -3.5q-1.0625 -1.265625 -3.015625 -1.28125l-2.046875 0zm17.620773 8.359375l-5.546875 0l-1.25 3.46875l-1.8125 0l5.0625 -13.265625l1.53125 0l5.0781326 13.265625l-1.7968826 0l-1.265625 -3.46875zm-5.03125 -1.4375l4.515625 0l-2.265625 -6.203125l-2.25 6.203125zm19.57003 3.171875q-0.671875 0.953125 -1.875 1.4375q-1.203125 0.484375 -2.8125 0.484375q-1.625 0 -2.890625 -0.765625q-1.25 -0.765625 -1.9375 -2.15625q-0.6875 -1.40625 -0.703125 -3.265625l0 -1.15625q0 -2.984375 1.390625 -4.640625q1.40625 -1.65625 3.9375 -1.65625q2.078125 0 3.34375 1.0625q1.265625 1.0625 1.546875 3.015625l-1.75 0q-0.484375 -2.625 -3.125 -2.625q-1.765625 0 -2.671875 1.234375q-0.90625 1.234375 -0.90625 3.5625l0 1.09375q0 2.234375 1.015625 3.546875q1.015625 1.3125 2.765625 1.3125q0.984375 0 1.71875 -0.21875q0.734375 -0.21875 1.21875 -0.734375l0 -2.984375l-3.078125 0l0 -1.421875l4.8125 0l0 4.875zm8.395248 -0.875q0 -0.6875 -0.515625 -1.0625q-0.515625 -0.375 -1.796875 -0.640625q-1.28125 -0.28125 -2.03125 -0.65625q-0.75 -0.390625 -1.109375 -0.921875q-0.359375 -0.53125 -0.359375 -1.265625q0 -1.203125 1.015625 -2.03125q1.03125 -0.84375 2.625 -0.84375q1.671875 0 2.71875 0.859375q1.046875 0.859375 1.046875 2.21875l-1.6875 0q0 -0.703125 -0.59375 -1.203125q-0.59375 -0.5 -1.484375 -0.5q-0.921875 0 -1.4375 0.40625q-0.515625 0.390625 -0.515625 1.046875q0 0.609375 0.484375 0.921875q0.484375 0.3125 1.734375 0.59375q1.265625 0.28125 2.046875 0.671875q0.78125 0.390625 1.15625 0.9375q0.390625 0.546875 0.390625 1.34375q0 1.328125 -1.0625 2.125q-1.046875 0.796875 -2.734375 0.796875q-1.1875 0 -2.109375 -0.421875q-0.90625 -0.421875 -1.421875 -1.171875q-0.515625 -0.75 -0.515625 -1.625l1.6875 0q0.046875 0.84375 0.671875 1.34375q0.640625 0.5 1.6875 0.5q0.953125 0 1.53125 -0.390625q0.578125 -0.390625 0.578125 -1.03125zm14.581894 2.609375q-0.140625 -0.296875 -0.234375 -1.03125q-1.171875 1.21875 -2.8125 1.21875q-1.453125 0 -2.390625 -0.828125q-0.921875 -0.828125 -0.921875 -2.09375q0 -1.53125 1.15625 -2.375q1.171875 -0.859375 3.296875 -0.859375l1.640625 0l0 -0.78125q0 -0.890625 -0.53125 -1.40625q-0.515625 -0.53125 -1.546875 -0.53125q-0.90625 0 -1.515625 0.46875q-0.609375 0.453125 -0.609375 1.09375l-1.703125 0q0 -0.734375 0.515625 -1.421875q0.53125 -0.6875 1.421875 -1.078125q0.90625 -0.40625 1.984375 -0.40625q1.703125 0 2.671875 0.859375q0.96875 0.84375 1.0 2.328125l0 4.53125q0 1.359375 0.34375 2.171875l0 0.140625l-1.765625 0zm-2.796875 -1.28125q0.796875 0 1.5 -0.40625q0.71875 -0.421875 1.03125 -1.078125l0 -2.015625l-1.3125 0q-3.109375 0 -3.109375 1.8125q0 0.796875 0.53125 1.25q0.53125 0.4375 1.359375 0.4375zm12.601105 -1.328125q0 -0.6875 -0.515625 -1.0625q-0.515625 -0.375 -1.796875 -0.640625q-1.28125 -0.28125 -2.03125 -0.65625q-0.75 -0.390625 -1.109375 -0.921875q-0.359375 -0.53125 -0.359375 -1.265625q0 -1.203125 1.015625 -2.03125q1.03125 -0.84375 2.625 -0.84375q1.671875 0 2.71875 0.859375q1.046875 0.859375 1.046875 2.21875l-1.6875 0q0 -0.703125 -0.59375 -1.203125q-0.59375 -0.5 -1.484375 -0.5q-0.921875 0 -1.4375 0.40625q-0.515625 0.390625 -0.515625 1.046875q0 0.609375 0.484375 0.921875q0.484375 0.3125 1.734375 0.59375q1.265625 0.28125 2.046875 0.671875q0.78125 0.390625 1.15625 0.9375q0.390625 0.546875 0.390625 1.34375q0 1.328125 -1.0625 2.125q-1.046875 0.796875 -2.734375 0.796875q-1.1875 0 -2.109375 -0.421875q-0.90625 -0.421875 -1.421875 -1.171875q-0.515625 -0.75 -0.515625 -1.625l1.6875 0q0.046875 0.84375 0.671875 1.34375q0.640625 0.5 1.6875 0.5q0.953125 0 1.53125 -0.390625q0.578125 -0.390625 0.578125 -1.03125zm9.066269 2.609375l0 -8.546875l-1.5625 0l0 -1.3125l1.5625 0l0 -0.828125q0 -1.65625 0.9375 -2.578125q0.9375 -0.921875 2.671875 -0.921875q1.015625 0 2.578125 0.5625l-0.28125 1.421875q-1.140625 -0.453125 -2.171875 -0.453125q-1.09375 0 -1.578125 0.484375q-0.46875 0.484375 -0.46875 1.453125l0 0.859375l2.015625 0l0 1.3125l-2.015625 0l0 8.546875l-1.6875 0zm7.015625 0l-1.6875 0l0 -9.859375l1.6875 0l0 9.859375zm6.0489197 -6.265625l2.1875 -3.59375l1.96875 0l-3.21875 4.875l3.328125 4.984375l-1.953125 0l-2.28125 -3.6875l-2.28125 3.6875l-1.953125 0l3.328125 -4.984375l-3.234375 -4.875l1.953125 0l2.15625 3.59375zm9.845093 6.453125q-2.0 0 -3.265625 -1.3125q-1.25 -1.328125 -1.25 -3.53125l0 -0.3125q0 -1.46875 0.5625 -2.609375q0.5625 -1.15625 1.5625 -1.796875q1.015625 -0.65625 2.1875 -0.65625q1.921875 0 2.984375 1.265625q1.0625 1.265625 1.0625 3.625l0 0.6875l-6.671875 0q0.03125 1.46875 0.84375 2.375q0.828125 0.890625 2.078125 0.890625q0.890625 0 1.515625 -0.359375q0.625 -0.375 1.078125 -0.96875l1.03125 0.796875q-1.234375 1.90625 -3.71875 1.90625zm-0.203125 -8.84375q-1.015625 0 -1.71875 0.75q-0.6875 0.734375 -0.84375 2.078125l4.9375 0l0 -0.125q-0.078125 -1.28125 -0.703125 -1.984375q-0.609375 -0.71875 -1.671875 -0.71875zm5.5869293 3.640625q0 -2.265625 1.078125 -3.640625q1.078125 -1.375 2.8125 -1.375q1.734375 0 2.75 1.171875l0 -5.140625l1.6875 0l0 14.0l-1.546875 0l-0.09375 -1.0625q-1.0 1.25 -2.8125 1.25q-1.703125 0 -2.796875 -1.40625q-1.078125 -1.40625 -1.078125 -3.65625l0 -0.140625zm1.6875 0.203125q0 1.671875 0.6875 2.625q0.703125 0.9375 1.921875 0.9375q1.609375 0 2.34375 -1.4375l0 -4.53125q-0.765625 -1.390625 -2.328125 -1.390625q-1.234375 0 -1.9375 0.953125q-0.6875 0.953125 -0.6875 2.84375zm12.755844 -0.140625l-4.4375 0l0 -1.375l4.4375 0l0 1.375zm3.4749908 4.953125l-1.6875 0l0 -14.0l1.6875 0l0 14.0zm6.77742 0.1875q-2.0 0 -3.265625 -1.3125q-1.25 -1.328125 -1.25 -3.53125l0 -0.3125q0 -1.46875 0.5625 -2.609375q0.5625 -1.15625 1.5625 -1.796875q1.015625 -0.65625 2.1875 -0.65625q1.921875 0 2.984375 1.265625q1.0625 1.265625 1.0625 3.625l0 0.6875l-6.671875 0q0.03125 1.46875 0.84375 2.375q0.828125 0.890625 2.078125 0.890625q0.890625 0 1.515625 -0.359375q0.625 -0.375 1.078125 -0.96875l1.03125 0.796875q-1.234375 1.90625 -3.71875 1.90625zm-0.203125 -8.84375q-1.015625 0 -1.71875 0.75q-0.6875 0.734375 -0.84375 2.078125l4.9375 0l0 -0.125q-0.078125 -1.28125 -0.703125 -1.984375q-0.609375 -0.71875 -1.671875 -0.71875zm7.6025543 -1.203125l0.046875 1.234375q1.125 -1.40625 2.953125 -1.40625q3.125 0 3.15625 3.515625l0 6.515625l-1.6875 0l0 -6.515625q-0.015625 -1.078125 -0.5 -1.578125q-0.46875 -0.515625 -1.484375 -0.515625q-0.8125 0 -1.4375 0.4375q-0.609375 0.4375 -0.96875 1.15625l0 7.015625l-1.671875 0l0 -9.859375l1.59375 0zm8.293732 4.84375q0 -2.296875 1.0625 -3.65625q1.0625 -1.359375 2.828125 -1.359375q1.7968597 0 2.8124847 1.265625l0.078125 -1.09375l1.546875 0l0 9.625q0 1.90625 -1.140625 3.0q-1.125 1.109375 -3.0468597 1.109375q-1.0625 0 -2.09375 -0.453125q-1.015625 -0.453125 -1.546875 -1.25l0.875 -1.0q1.078125 1.328125 2.65625 1.328125q1.2187347 0 1.9062347 -0.6875q0.6875 -0.6875 0.6875 -1.953125l0 -0.84375q-1.0 1.171875 -2.7499847 1.171875q-1.734375 0 -2.8125 -1.390625q-1.0625 -1.40625 -1.0625 -3.8125zm1.6875 0.203125q0 1.65625 0.6875 2.609375q0.6875 0.953125 1.9218597 0.953125q1.59375 0 2.328125 -1.453125l0 -4.5q-0.765625 -1.40625 -2.3125 -1.40625q-1.2343597 0 -1.9374847 0.953125q-0.6875 0.953125 -0.6875 2.84375zm11.466812 -7.4375l0 2.390625l1.84375 0l0 1.3125l-1.84375 0l0 6.109375q0 0.59375 0.234375 0.890625q0.25 0.296875 0.84375 0.296875q0.296875 0 0.8125 -0.109375l0 1.359375q-0.671875 0.1875 -1.296875 0.1875q-1.125 0 -1.703125 -0.6875q-0.578125 -0.6875 -0.578125 -1.9375l0 -6.109375l-1.796875 0l0 -1.3125l1.796875 0l0 -2.390625l1.6875 0zm5.4848633 3.59375q1.125 -1.375 2.921875 -1.375q3.125 0 3.15625 3.515625l0 6.515625l-1.6875 0l0 -6.515625q-0.015625 -1.078125 -0.5 -1.578125q-0.46875 -0.515625 -1.484375 -0.515625q-0.8125 0 -1.4375 0.4375q-0.609375 0.4375 -0.96875 1.15625l0 7.015625l-1.671875 0l0 -14.0l1.671875 0l0 5.34375z" fill-rule="nonzero"/><path fill="#000000" d="m130.07103 189.84348l2.4375 -7.578125l1.71875 0l-3.53125 9.859375l-1.28125 0l-3.578125 -9.859375l1.71875 0l2.515625 7.578125zm9.746277 2.46875q-2.0 0 -3.265625 -1.3125q-1.25 -1.328125 -1.25 -3.53125l0 -0.3125q0 -1.46875 0.5625 -2.609375q0.5625 -1.15625 1.5625 -1.796875q1.015625 -0.65625 2.1875 -0.65625q1.921875 0 2.984375 1.265625q1.0625 1.265625 1.0625 3.625l0 0.6875l-6.671875 0q0.03125 1.46875 0.84375 2.375q0.828125 0.890625 2.078125 0.890625q0.890625 0 1.515625 -0.359375q0.625 -0.375 1.078125 -0.96875l1.03125 0.796875q-1.234375 1.90625 -3.71875 1.90625zm-0.203125 -8.84375q-1.015625 0 -1.71875 0.75q-0.6875 0.734375 -0.84375 2.078125l4.9375 0l0 -0.125q-0.078125 -1.28125 -0.703125 -1.984375q-0.609375 -0.71875 -1.671875 -0.71875zm9.961914 7.46875q0.890625 0 1.5625 -0.546875q0.6875 -0.546875 0.75 -1.375l1.59375 0q-0.046875 0.84375 -0.578125 1.609375q-0.53125 0.765625 -1.4375 1.234375q-0.890625 0.453125 -1.890625 0.453125q-2.015625 0 -3.203125 -1.34375q-1.1875 -1.34375 -1.1875 -3.6875l0 -0.28125q0 -1.4375 0.515625 -2.546875q0.53125 -1.125 1.515625 -1.734375q1.0 -0.625 2.34375 -0.625q1.65625 0 2.75 1.0q1.109375 0.984375 1.171875 2.5625l-1.59375 0q-0.0625 -0.953125 -0.71875 -1.5625q-0.65625 -0.625 -1.609375 -0.625q-1.28125 0 -2.0 0.921875q-0.703125 0.921875 -0.703125 2.671875l0 0.328125q0 1.703125 0.703125 2.625q0.703125 0.921875 2.015625 0.921875zm8.093506 -11.0625l0 2.390625l1.84375 0l0 1.3125l-1.84375 0l0 6.109375q0 0.59375 0.234375 0.890625q0.25 0.296875 0.84375 0.296875q0.296875 0 0.8125 -0.109375l0 1.359375q-0.671875 0.1875 -1.296875 0.1875q-1.125 0 -1.703125 -0.6875q-0.578125 -0.6875 -0.578125 -1.9375l0 -6.109375l-1.796875 0l0 -1.3125l1.796875 0l0 -2.390625l1.6875 0zm3.1775818 7.234375q0 -1.453125 0.5625 -2.609375q0.578125 -1.15625 1.59375 -1.78125q1.015625 -0.625 2.3125 -0.625q2.015625 0 3.25 1.390625q1.25 1.390625 1.25 3.703125l0 0.125q0 1.4375 -0.546875 2.578125q-0.546875 1.140625 -1.578125 1.78125q-1.015625 0.640625 -2.359375 0.640625q-2.0 0 -3.25 -1.390625q-1.234375 -1.40625 -1.234375 -3.703125l0 -0.109375zm1.6875 0.203125q0 1.640625 0.765625 2.640625q0.765625 0.984375 2.03125 0.984375q1.296875 0 2.046875 -1.0q0.75 -1.015625 0.75 -2.828125q0 -1.625 -0.765625 -2.625q-0.765625 -1.015625 -2.046875 -1.015625q-1.25 0 -2.015625 1.0q-0.765625 0.984375 -0.765625 2.84375zm14.171143 -3.53125q-0.390625 -0.0625 -0.84375 -0.0625q-1.65625 0 -2.25 1.40625l0 7.0l-1.671875 0l0 -9.859375l1.640625 0l0.015625 1.140625q0.828125 -1.3125 2.359375 -1.3125q0.484375 0 0.75 0.125l0 1.5625zm7.2816467 5.734375q0 -0.6875 -0.515625 -1.0625q-0.515625 -0.375 -1.796875 -0.640625q-1.28125 -0.28125 -2.03125 -0.65625q-0.75 -0.390625 -1.109375 -0.921875q-0.359375 -0.53125 -0.359375 -1.265625q0 -1.203125 1.015625 -2.03125q1.03125 -0.84375 2.625 -0.84375q1.671875 0 2.71875 0.859375q1.046875 0.859375 1.046875 2.21875l-1.6875 0q0 -0.703125 -0.59375 -1.203125q-0.59375 -0.5 -1.484375 -0.5q-0.921875 0 -1.4375 0.40625q-0.515625 0.390625 -0.515625 1.046875q0 0.609375 0.484375 0.921875q0.484375 0.3125 1.734375 0.59375q1.265625 0.28125 2.046875 0.671875q0.78125 0.390625 1.15625 0.9375q0.390625 0.546875 0.390625 1.34375q0 1.328125 -1.0625 2.125q-1.046875 0.796875 -2.734375 0.796875q-1.1875 0 -2.109375 -0.421875q-0.90625 -0.421875 -1.421875 -1.171875q-0.515625 -0.75 -0.515625 -1.625l1.6875 0q0.046875 0.84375 0.671875 1.34375q0.640625 0.5 1.6875 0.5q0.953125 0 1.53125 -0.390625q0.578125 -0.390625 0.578125 -1.03125z" fill-rule="nonzero"/><path fill="#cfe2f3" d="m68.31683 268.06726l0 0c0 -3.5369873 2.8673172 -6.4043274 6.4043274 -6.4043274l162.68741 0c1.6985321 0 3.3274994 0.67474365 4.528549 1.8757935c1.2010345 1.2010498 1.8757782 2.830017 1.8757782 4.528534l0 25.616547c0 3.5370178 -2.8673096 6.4043274 -6.4043274 6.4043274l-162.68741 0c-3.5370102 0 -6.4043274 -2.8673096 -6.4043274 -6.4043274z" fill-rule="evenodd"/><path stroke="#000000" stroke-width="1.0" stroke-linejoin="round" stroke-linecap="butt" d="m68.31683 268.06726l0 0c0 -3.5369873 2.8673172 -6.4043274 6.4043274 -6.4043274l162.68741 0c1.6985321 0 3.3274994 0.67474365 4.528549 1.8757935c1.2010345 1.2010498 1.8757782 2.830017 1.8757782 4.528534l0 25.616547c0 3.5370178 -2.8673096 6.4043274 -6.4043274 6.4043274l-162.68741 0c-3.5370102 0 -6.4043274 -2.8673096 -6.4043274 -6.4043274z" fill-rule="evenodd"/><path fill="#000000" d="m118.339066 283.5924q-0.25 2.09375 -1.5625 3.25q-1.296875 1.140625 -3.46875 1.140625q-2.34375 0 -3.765625 -1.6875q-1.421875 -1.6875 -1.421875 -4.515625l0 -1.265625q0 -1.859375 0.65625 -3.25q0.671875 -1.40625 1.875 -2.15625q1.21875 -0.765625 2.8125 -0.765625q2.109375 0 3.390625 1.1875q1.28125 1.171875 1.484375 3.265625l-1.765625 0q-0.21875 -1.578125 -0.984375 -2.28125q-0.765625 -0.71875 -2.125 -0.71875q-1.671875 0 -2.625 1.234375q-0.953125 1.234375 -0.953125 3.53125l0 1.28125q0 2.15625 0.890625 3.4375q0.90625 1.265625 2.53125 1.265625q1.453125 0 2.234375 -0.65625q0.78125 -0.65625 1.03125 -2.296875l1.765625 0zm3.9554596 4.203125l-1.6875 0l0 -14.0l1.6875 0l0 14.0zm8.77742 0q-0.140625 -0.296875 -0.234375 -1.03125q-1.171875 1.21875 -2.8125 1.21875q-1.453125 0 -2.390625 -0.828125q-0.921875 -0.828125 -0.921875 -2.09375q0 -1.53125 1.15625 -2.375q1.171875 -0.859375 3.296875 -0.859375l1.640625 0l0 -0.78125q0 -0.890625 -0.53125 -1.40625q-0.515625 -0.53125 -1.546875 -0.53125q-0.90625 0 -1.515625 0.46875q-0.609375 0.453125 -0.609375 1.09375l-1.703125 0q0 -0.734375 0.515625 -1.421875q0.53125 -0.6875 1.421875 -1.078125q0.90625 -0.40625 1.984375 -0.40625q1.703125 0 2.671875 0.859375q0.96875 0.84375 1.0 2.328125l0 4.53125q0 1.359375 0.34375 2.171875l0 0.140625l-1.765625 0zm-2.796875 -1.28125q0.796875 0 1.5 -0.40625q0.71875 -0.421875 1.03125 -1.078125l0 -2.015625l-1.3125 0q-3.109375 0 -3.109375 1.8125q0 0.796875 0.53125 1.25q0.53125 0.4375 1.359375 0.4375zm12.944855 0.3125q-0.984375 1.15625 -2.890625 1.15625q-1.578125 0 -2.40625 -0.921875q-0.8125 -0.921875 -0.828125 -2.703125l0 -6.421875l1.6875 0l0 6.375q0 2.234375 1.828125 2.234375q1.921875 0 2.5625 -1.4375l0 -7.171875l1.6875 0l0 9.859375l-1.609375 0l-0.03125 -0.96875zm9.940872 -1.640625q0 -0.6875 -0.515625 -1.0625q-0.515625 -0.375 -1.796875 -0.640625q-1.28125 -0.28125 -2.03125 -0.65625q-0.75 -0.390625 -1.109375 -0.921875q-0.359375 -0.53125 -0.359375 -1.265625q0 -1.203125 1.015625 -2.03125q1.03125 -0.84375 2.625 -0.84375q1.671875 0 2.71875 0.859375q1.046875 0.859375 1.046875 2.21875l-1.6875 0q0 -0.703125 -0.59375 -1.203125q-0.59375 -0.5 -1.484375 -0.5q-0.921875 0 -1.4375 0.40625q-0.515625 0.390625 -0.515625 1.046875q0 0.609375 0.484375 0.921875q0.484375 0.3125 1.734375 0.59375q1.265625 0.28125 2.046875 0.671875q0.78125 0.390625 1.15625 0.9375q0.390625 0.546875 0.390625 1.34375q0 1.328125 -1.0625 2.125q-1.046875 0.796875 -2.734375 0.796875q-1.1875 0 -2.109375 -0.421875q-0.90625 -0.421875 -1.421875 -1.171875q-0.515625 -0.75 -0.515625 -1.625l1.6875 0q0.046875 0.84375 0.671875 1.34375q0.640625 0.5 1.6875 0.5q0.953125 0 1.53125 -0.390625q0.578125 -0.390625 0.578125 -1.03125zm7.963379 2.796875q-2.0 0 -3.265625 -1.3125q-1.25 -1.328125 -1.25 -3.53125l0 -0.3125q0 -1.46875 0.5625 -2.609375q0.5625 -1.15625 1.5625 -1.796875q1.015625 -0.65625 2.1875 -0.65625q1.921875 0 2.984375 1.265625q1.0625 1.265625 1.0625 3.625l0 0.6875l-6.671875 0q0.03125 1.46875 0.84375 2.375q0.828125 0.890625 2.078125 0.890625q0.890625 0 1.515625 -0.359375q0.625 -0.375 1.078125 -0.96875l1.03125 0.796875q-1.234375 1.90625 -3.71875 1.90625zm-0.203125 -8.84375q-1.015625 0 -1.71875 0.75q-0.6875 0.734375 -0.84375 2.078125l4.9375 0l0 -0.125q-0.078125 -1.28125 -0.703125 -1.984375q-0.609375 -0.71875 -1.671875 -0.71875zm10.892944 8.65625l0 -13.265625l3.734375 0q1.734375 0 3.0625 0.765625q1.328125 0.765625 2.046875 2.1875q0.734375 1.40625 0.734375 3.234375l0 0.84375q0 1.875 -0.71875 3.296875q-0.71875 1.40625 -2.0625 2.171875q-1.34375 0.75 -3.140625 0.765625l-3.65625 0zm1.734375 -11.828125l0 10.390625l1.84375 0q2.03125 0 3.15625 -1.25q1.125 -1.25 1.125 -3.578125l0 -0.78125q0 -2.25 -1.0625 -3.5q-1.0625 -1.265625 -3.015625 -1.28125l-2.046875 0zm17.620773 8.359375l-5.546875 0l-1.25 3.46875l-1.8125 0l5.0625 -13.265625l1.53125 0l5.078125 13.265625l-1.796875 0l-1.265625 -3.46875zm-5.03125 -1.4375l4.515625 0l-2.265625 -6.203125l-2.25 6.203125zm19.570023 3.171875q-0.671875 0.953125 -1.875 1.4375q-1.203125 0.484375 -2.8125 0.484375q-1.625 0 -2.890625 -0.765625q-1.25 -0.765625 -1.9375 -2.15625q-0.6875 -1.40625 -0.703125 -3.265625l0 -1.15625q0 -2.984375 1.390625 -4.640625q1.40625 -1.65625 3.9375 -1.65625q2.078125 0 3.34375 1.0625q1.265625 1.0625 1.546875 3.015625l-1.75 0q-0.484375 -2.625 -3.125 -2.625q-1.765625 0 -2.671875 1.234375q-0.90625 1.234375 -0.90625 3.5625l0 1.09375q0 2.234375 1.015625 3.546875q1.015625 1.3125 2.765625 1.3125q0.984375 0 1.71875 -0.21875q0.734375 -0.21875 1.21875 -0.734375l0 -2.984375l-3.078125 0l0 -1.421875l4.8125 0l0 4.875z" fill-rule="nonzero"/><path fill="#000000" fill-opacity="0.0" d="m156.06561 197.47244l0 64.188965" fill-rule="evenodd"/><path stroke="#000000" stroke-width="1.0" stroke-linejoin="round" stroke-linecap="butt" d="m156.06561 197.47244l0 58.18898" fill-rule="evenodd"/><path fill="#000000" stroke="#000000" stroke-width="1.0" stroke-linecap="butt" d="m154.41388 255.66142l1.6517334 4.538101l1.6517334 -4.538101z" fill-rule="evenodd"/></g></svg>