<svg version="1.1" viewBox="0.0 0.0 241.50918635170603 100.0" fill="none" stroke="none" stroke-linecap="square" stroke-miterlimit="10" xmlns:xlink="http://www.w3.org/1999/xlink" xmlns="http://www.w3.org/2000/svg"><clipPath id="p.0"><path d="m0 0l241.50919 0l0 100.0l-241.50919 0l0 -100.0z" clip-rule="nonzero"/></clipPath><g clip-path="url(#p.0)"><path fill="#000000" fill-opacity="0.0" d="m0 0l241.50919 0l0 100.0l-241.50919 0z" fill-rule="evenodd"/><path fill="#ffffff" d="m7.7204723 54.062992l0 0c0 -13.881046 11.252811 -25.133858 25.13386 -25.133858l0 0c6.6659126 0 13.058807 2.6480236 17.77232 7.361538c4.7135124 4.7135124 7.361538 11.106407 7.361538 17.77232l0 0c0 13.881046 -11.252811 25.133862 -25.133858 25.133862l0 0c-13.881048 0 -25.13386 -11.252815 -25.13386 -25.133862z" fill-rule="evenodd"/><path stroke="#000000" stroke-width="1.0" stroke-linejoin="round" stroke-linecap="butt" d="m7.7204723 54.062992l0 0c0 -13.881046 11.252811 -25.133858 25.13386 -25.133858l0 0c6.6659126 0 13.058807 2.6480236 17.77232 7.361538c4.7135124 4.7135124 7.361538 11.106407 7.361538 17.77232l0 0c0 13.881046 -11.252811 25.133862 -25.133858 25.133862l0 0c-13.881048 0 -25.13386 -11.252815 -25.13386 -25.133862z" fill-rule="evenodd"/><path fill="#000000" d="m35.498398 60.98299q-0.15625 -0.46875 -0.203125 -1.375q-0.578125 0.75 -1.46875 1.15625q-0.890625 0.40625 -1.8750019 0.40625q-1.421875 0 -2.3125 -0.796875q-0.875 -0.796875 -0.875 -2.0q0 -1.4375 1.203125 -2.28125q1.203125 -0.84375 3.343752 -0.84375l1.96875 0l0 -1.109375q0 -1.0625 -0.65625 -1.671875q-0.640625 -0.609375 -1.890625 -0.609375q-1.1406269 0 -1.8906269 0.59375q-0.75 0.578125 -0.75 1.40625l-1.09375 -0.015625q0 -1.171875 1.09375 -2.03125q1.09375 -0.859375 2.687502 -0.859375q1.65625 0 2.609375 0.828125q0.953125 0.8125 0.984375 2.28125l0 4.671875q0 1.4375 0.296875 2.140625l0 0.109375l-1.171875 0zm-3.421875 -0.78125q1.09375 0 1.953125 -0.53125q0.859375 -0.53125 1.25 -1.40625l0 -2.171875l-1.953125 0q-1.6250019 0.015625 -2.546877 0.59375q-0.921875 0.578125 -0.921875 1.59375q0 0.828125 0.609375 1.375q0.625 0.546875 1.6093769 0.546875z" fill-rule="nonzero"/><path fill="#ffffff" d="m183.521 54.062992l0 0c0 -13.881046 11.252808 -25.133858 25.133865 -25.133858l0 0c6.665909 0 13.058807 2.6480236 17.772308 7.361538c4.713516 4.7135124 7.3615417 11.106407 7.3615417 17.77232l0 0c0 13.881046 -11.252808 25.133862 -25.13385 25.133862l0 0c-13.881058 0 -25.133865 -11.252815 -25.133865 -25.133862z" fill-rule="evenodd"/><path stroke="#000000" stroke-width="1.0" stroke-linejoin="round" stroke-linecap="butt" d="m183.521 54.062992l0 0c0 -13.881046 11.252808 -25.133858 25.133865 -25.133858l0 0c6.665909 0 13.058807 2.6480236 17.772308 7.361538c4.713516 4.7135124 7.3615417 11.106407 7.3615417 17.77232l0 0c0 13.881046 -11.252808 25.133862 -25.13385 25.133862l0 0c-13.881058 0 -25.133865 -11.252815 -25.133865 -25.133862z" fill-rule="evenodd"/><path fill="#000000" d="m212.84459 56.154865q0 2.3125 -1.03125 3.671875q-1.015625 1.34375 -2.734375 1.34375q-2.0625 0 -3.109375 -1.53125l-0.046875 1.34375l-1.03125 0l0 -14.0l1.09375 0l0 5.578125q1.03125 -1.609375 3.078125 -1.609375q1.75 0 2.765625 1.328125q1.015625 1.328125 1.015625 3.71875l0 0.15625zm-1.09375 -0.1875q0 -1.953125 -0.765625 -3.015625q-0.75 -1.0625 -2.125 -1.0625q-1.046875 0 -1.78125 0.515625q-0.71875 0.515625 -1.09375 1.515625l0 4.4375q0.8125 1.859375 2.890625 1.859375q1.34375 0 2.109375 -1.0625q0.765625 -1.0625 0.765625 -3.1875z" fill-rule="nonzero"/><path fill="#000000" fill-opacity="0.0" d="m57.98819 54.062992l125.543304 0" fill-rule="evenodd"/><path stroke="#000000" stroke-width="1.0" stroke-linejoin="round" stroke-linecap="butt" d="m57.98819 54.062992l119.543304 0" fill-rule="evenodd"/><path fill="#000000" stroke="#000000" stroke-width="1.0" stroke-linecap="butt" d="m177.5315 55.714725l4.538101 -1.6517334l-4.538101 -1.6517334z" fill-rule="evenodd"/><path fill="#000000" fill-opacity="0.0" d="m63.74147 20.80315l103.968506 0l0 42.23622l-103.968506 0z" fill-rule="evenodd"/><path fill="#000000" d="m116.141174 47.91065q-1.25 0 -2.265625 -0.625q-1.015625 -0.625 -1.59375 -1.71875q-0.5625 -1.109375 -0.5625 -2.484375l0 -0.390625q0 -1.421875 0.546875 -2.5625q0.5625 -1.140625 1.546875 -1.78125q0.984375 -0.65625 2.125 -0.65625q1.796875 0 2.84375 1.21875q1.0625 1.21875 1.0625 3.34375l0 0.609375l-7.03125 0l0 0.21875q0 1.671875 0.953125 2.796875q0.96875 1.109375 2.421875 1.109375q0.875 0 1.546875 -0.3125q0.671875 -0.328125 1.21875 -1.03125l0.6875 0.515625q-1.203125 1.75 -3.5 1.75zm-0.203125 -9.296875q-1.21875 0 -2.0625 0.90625q-0.84375 0.890625 -1.03125 2.421875l5.921875 0l0 -0.125q-0.046875 -1.421875 -0.8125 -2.3125q-0.765625 -0.890625 -2.015625 -0.890625z" fill-rule="nonzero"/></g></svg>