<svg version="1.1" viewBox="0.0 0.0 403.37270341207346 311.36482939632543" fill="none" stroke="none" stroke-linecap="square" stroke-miterlimit="10" xmlns:xlink="http://www.w3.org/1999/xlink" xmlns="http://www.w3.org/2000/svg"><clipPath id="p.0"><path d="m0 0l403.3727 0l0 311.36484l-403.3727 0l0 -311.36484z" clip-rule="nonzero"/></clipPath><g clip-path="url(#p.0)"><path fill="#000000" fill-opacity="0.0" d="m0 0l403.3727 0l0 311.36484l-403.3727 0z" fill-rule="evenodd"/><path fill="#ffffff" d="m180.8622 164.46982l0 0c0 -13.428787 10.886185 -24.314957 24.314972 -24.314957l0 0c6.4487305 0 12.633331 2.561737 17.193268 7.121689c4.5599365 4.5599365 7.121689 10.744537 7.121689 17.193268l0 0c0 13.428787 -10.886185 24.314957 -24.314957 24.314957l0 0c-13.428787 0 -24.314972 -10.886169 -24.314972 -24.314957z" fill-rule="evenodd"/><path stroke="#000000" stroke-width="3.0" stroke-linejoin="round" stroke-linecap="butt" d="m180.8622 164.46982l0 0c0 -13.428787 10.886185 -24.314957 24.314972 -24.314957l0 0c6.4487305 0 12.633331 2.561737 17.193268 7.121689c4.5599365 4.5599365 7.121689 10.744537 7.121689 17.193268l0 0c0 13.428787 -10.886185 24.314957 -24.314957 24.314957l0 0c-13.428787 0 -24.314972 -10.886169 -24.314972 -24.314957z" fill-rule="evenodd"/><path fill="#000000" d="m205.4344 170.65544q1.140625 0 1.90625 -0.640625q0.78125 -0.640625 0.84375 -1.671875l1.046875 0q-0.046875 0.90625 -0.578125 1.65625q-0.515625 0.734375 -1.375 1.15625q-0.859375 0.421875 -1.84375 0.421875q-1.9375 0 -3.078125 -1.34375q-1.125 -1.359375 -1.125 -3.640625l0 -0.328125q0 -1.453125 0.5 -2.5625q0.515625 -1.125 1.46875 -1.734375q0.953125 -0.609375 2.234375 -0.609375q1.609375 0 2.65625 0.96875q1.0625 0.953125 1.140625 2.53125l-1.046875 0q-0.078125 -1.15625 -0.84375 -1.859375q-0.75 -0.71875 -1.90625 -0.71875q-1.484375 0 -2.296875 1.0625q-0.8125 1.0625 -0.8125 2.984375l0 0.328125q0 1.890625 0.8125 2.953125q0.8125 1.046875 2.296875 1.046875z" fill-rule="nonzero"/><path fill="#ffffff" d="m40.6916 121.65354l0 0c0 -13.42878 10.886177 -24.314957 24.31496 -24.314957l0 0c6.4487305 0 12.633331 2.5617447 17.193275 7.121681c4.5599365 4.559944 7.121689 10.744545 7.121689 17.193275l0 0c0 13.42878 -10.886185 24.314964 -24.314964 24.314964l0 0c-13.428783 0 -24.31496 -10.886185 -24.31496 -24.314964z" fill-rule="evenodd"/><path stroke="#000000" stroke-width="1.0" stroke-linejoin="round" stroke-linecap="butt" d="m40.6916 121.65354l0 0c0 -13.42878 10.886177 -24.314957 24.31496 -24.314957l0 0c6.4487305 0 12.633331 2.5617447 17.193275 7.121681c4.5599365 4.559944 7.121689 10.744545 7.121689 17.193275l0 0c0 13.42878 -10.886185 24.314964 -24.314964 24.314964l0 0c-13.428783 0 -24.31496 -10.886185 -24.31496 -24.314964z" fill-rule="evenodd"/><path fill="#000000" d="m67.65063 128.57355q-0.15625 -0.46875 -0.203125 -1.3750076q-0.578125 0.75 -1.46875 1.1562576q-0.890625 0.40625 -1.875 0.40625q-1.421875 0 -2.3125 -0.7968826q-0.875 -0.796875 -0.875 -2.0q0 -1.4375 1.203125 -2.28125q1.203125 -0.84375 3.34375 -0.84375l1.96875 0l0 -1.109375q0 -1.0625 -0.65625 -1.671875q-0.640625 -0.609375 -1.890625 -0.609375q-1.140625 0 -1.890625 0.59375q-0.75 0.578125 -0.75 1.40625l-1.09375 -0.015625q0 -1.171875 1.09375 -2.03125q1.09375 -0.859375 2.6875 -0.859375q1.65625 0 2.609375 0.828125q0.953125 0.8125 0.984375 2.28125l0 4.671875q0 1.4375 0.296875 2.1406326l0 0.109375l-1.171875 0zm-3.421875 -0.7812576q1.09375 0 1.953125 -0.53125q0.859375 -0.53125 1.25 -1.40625l0 -2.171875l-1.953125 0q-1.625 0.015625 -2.546875 0.59375q-0.921875 0.578125 -0.921875 1.59375q0 0.828125 0.609375 1.375q0.625 0.546875 1.609375 0.546875z" fill-rule="nonzero"/><path fill="#ffffff" d="m229.49213 33.204723l0 0c0 -13.4287815 10.886185 -24.31496 24.314957 -24.31496l0 0c6.4487457 0 12.633347 2.5617476 17.193283 7.121688c4.5599365 4.5599384 7.1216736 10.744545 7.1216736 17.193272l0 0c0 13.428783 -10.886169 24.31496 -24.314957 24.31496l0 0c-13.428772 0 -24.314957 -10.886177 -24.314957 -24.31496z" fill-rule="evenodd"/><path stroke="#000000" stroke-width="1.0" stroke-linejoin="round" stroke-linecap="butt" d="m229.49213 33.204723l0 0c0 -13.4287815 10.886185 -24.31496 24.314957 -24.31496l0 0c6.4487457 0 12.633347 2.5617476 17.193283 7.121688c4.5599365 4.5599384 7.1216736 10.744545 7.1216736 17.193272l0 0c0 13.428783 -10.886169 24.31496 -24.314957 24.31496l0 0c-13.428772 0 -24.314957 -10.886177 -24.314957 -24.31496z" fill-rule="evenodd"/><path fill="#000000" d="m257.99683 35.296597q0 2.3125 -1.03125 3.671875q-1.015625 1.34375 -2.734375 1.34375q-2.0625 0 -3.109375 -1.53125l-0.046875 1.34375l-1.03125 0l0 -13.999998l1.09375 0l0 5.578125q1.03125 -1.609375 3.078125 -1.609375q1.75 0 2.765625 1.328125q1.015625 1.3281231 1.015625 3.718748l0 0.15625zm-1.09375 -0.1875q0 -1.953125 -0.765625 -3.015625q-0.75 -1.0624981 -2.125 -1.0624981q-1.046875 0 -1.78125 0.515625q-0.71875 0.5156231 -1.09375 1.5156231l0 4.4375q0.8125 1.859375 2.890625 1.859375q1.34375 0 2.109375 -1.0625q0.765625 -1.0625 0.765625 -3.1875z" fill-rule="nonzero"/><path fill="#ffffff" d="m314.04855 164.46982l0 0c0 -13.428787 10.886169 -24.314957 24.314972 -24.314957l0 0c6.4487305 0 12.633331 2.561737 17.193268 7.121689c4.5599365 4.5599365 7.1216736 10.744537 7.1216736 17.193268l0 0c0 13.428787 -10.886169 24.314957 -24.314941 24.314957l0 0c-13.4288025 0 -24.314972 -10.886169 -24.314972 -24.314957z" fill-rule="evenodd"/><path stroke="#000000" stroke-width="1.0" stroke-linejoin="round" stroke-linecap="butt" d="m314.04855 164.46982l0 0c0 -13.428787 10.886169 -24.314957 24.314972 -24.314957l0 0c6.4487305 0 12.633331 2.561737 17.193268 7.121689c4.5599365 4.5599365 7.1216736 10.744537 7.1216736 17.193268l0 0c0 13.428787 -10.886169 24.314957 -24.314941 24.314957l0 0c-13.4288025 0 -24.314972 -10.886169 -24.314972 -24.314957z" fill-rule="evenodd"/><path fill="#000000" d="m334.16458 166.37419q0 -2.296875 1.015625 -3.65625q1.03125 -1.359375 2.796875 -1.359375q1.984375 0 3.03125 1.5625l0 -5.53125l1.09375 0l0 14.0l-1.03125 0l-0.03125 -1.3125q-1.046875 1.5 -3.09375 1.5q-1.703125 0 -2.75 -1.375q-1.03125 -1.375 -1.03125 -3.703125l0 -0.125zm1.109375 0.1875q0 1.890625 0.75 2.984375q0.75 1.078125 2.125 1.078125q2.015625 0 2.859375 -1.78125l0 -4.625q-0.84375 -1.921875 -2.84375 -1.921875q-1.375 0 -2.140625 1.078125q-0.75 1.078125 -0.75 3.1875z" fill-rule="nonzero"/><path fill="#ffffff" d="m221.53674 278.1601l0 0c0 -13.428772 10.886185 -24.314957 24.314957 -24.314957l0 0c6.4487305 0 12.633347 2.5617523 17.193283 7.121689c4.5599365 4.5599365 7.1216736 10.744537 7.1216736 17.193268l0 0c0 13.4288025 -10.886169 24.314972 -24.314957 24.314972l0 0c-13.428772 0 -24.314957 -10.886169 -24.314957 -24.314972z" fill-rule="evenodd"/><path stroke="#000000" stroke-width="1.0" stroke-linejoin="round" stroke-linecap="butt" d="m221.53674 278.1601l0 0c0 -13.428772 10.886185 -24.314957 24.314957 -24.314957l0 0c6.4487305 0 12.633347 2.5617523 17.193283 7.121689c4.5599365 4.5599365 7.1216736 10.744537 7.1216736 17.193268l0 0c0 13.4288025 -10.886169 24.314972 -24.314957 24.314972l0 0c-13.428772 0 -24.314957 -10.886169 -24.314957 -24.314972z" fill-rule="evenodd"/><path fill="#000000" d="m246.26715 285.2676q-1.25 0 -2.265625 -0.625q-1.015625 -0.625 -1.59375 -1.71875q-0.5625 -1.109375 -0.5625 -2.484375l0 -0.390625q0 -1.421875 0.546875 -2.5625q0.5625 -1.140625 1.546875 -1.78125q0.984375 -0.65625 2.125 -0.65625q1.796875 0 2.84375 1.21875q1.0625 1.21875 1.0625 3.34375l0 0.609375l-7.03125 0l0 0.21875q0 1.671875 0.953125 2.796875q0.96875 1.109375 2.421875 1.109375q0.875 0 1.546875 -0.3125q0.671875 -0.328125 1.21875 -1.03125l0.6875 0.515625q-1.203125 1.75 -3.5 1.75zm-0.203125 -9.296875q-1.21875 0 -2.0625 0.90625q-0.84375 0.890625 -1.03125 2.421875l5.921875 0l0 -0.125q-0.046875 -1.421875 -0.8125 -2.3125q-0.765625 -0.890625 -2.015625 -0.890625z" fill-rule="nonzero"/><path fill="#000000" fill-opacity="0.0" d="m82.188614 104.445244l154.4252 -54.047245" fill-rule="evenodd"/><path stroke="#000000" stroke-width="1.0" stroke-linejoin="round" stroke-linecap="butt" d="m82.188614 104.445244l154.4252 -54.047245" fill-rule="evenodd"/><path fill="#000000" fill-opacity="0.0" d="m253.80708 57.509186l-48.629913 82.645676" fill-rule="evenodd"/><path stroke="#000000" stroke-width="1.0" stroke-linejoin="round" stroke-linecap="butt" d="m253.80708 57.509186l-48.629913 82.645676" fill-rule="evenodd"/><path fill="#000000" fill-opacity="0.0" d="m229.48163 164.46982l84.566925 0" fill-rule="evenodd"/><path stroke="#000000" stroke-width="1.0" stroke-linejoin="round" stroke-linecap="butt" d="m229.48163 164.46982l84.566925 0" fill-rule="evenodd"/><path fill="#000000" fill-opacity="0.0" d="m205.17717 188.78477l23.496063 72.18898" fill-rule="evenodd"/><path stroke="#000000" stroke-width="1.0" stroke-linejoin="round" stroke-linecap="butt" d="m205.17717 188.78477l23.496063 72.18898" fill-rule="evenodd"/><path fill="#000000" fill-opacity="0.0" d="m0 311.80316l209.92126 0l0 42.236206l-209.92126 0z" fill-rule="evenodd"/><path fill="#000000" fill-opacity="0.0" d="m253.53937 74.27034l-32.0 55.496063" fill-rule="evenodd"/><path stroke="#ff0000" stroke-width="1.0" stroke-linejoin="round" stroke-linecap="butt" d="m253.53937 74.27034l-29.002853 50.298264" fill-rule="evenodd"/><path fill="#ff0000" stroke="#ff0000" stroke-width="1.0" stroke-linecap="butt" d="m223.10562 123.74352l-0.83599854 4.7564316l3.6977844 -3.1062698z" fill-rule="evenodd"/><path fill="#000000" fill-opacity="0.0" d="m308.69852 175.26152l-73.85826 -1.606308" fill-rule="evenodd"/><path stroke="#ff0000" stroke-width="1.0" stroke-linejoin="round" stroke-linecap="butt" d="m308.69852 175.26152l-67.859665 -1.4758453" fill-rule="evenodd"/><path fill="#ff0000" stroke="#ff0000" stroke-width="1.0" stroke-linecap="butt" d="m240.87476 172.13434l-4.572937 1.5526733l4.501114 1.7500153z" fill-rule="evenodd"/><path fill="#000000" fill-opacity="0.0" d="m215.14568 268.97113l-19.937012 -68.0" fill-rule="evenodd"/><path stroke="#ff0000" stroke-width="1.0" stroke-linejoin="round" stroke-linecap="butt" d="m215.14568 268.97113l-18.248917 -62.24237" fill-rule="evenodd"/><path fill="#ff0000" stroke="#ff0000" stroke-width="1.0" stroke-linecap="butt" d="m198.48177 206.26405l-2.8618011 -3.8900757l-0.30822754 4.819504z" fill-rule="evenodd"/></g></svg>